<?xml version="1.0" encoding="utf-8"?>
<!-- Generator: Adobe Illustrator 26.0.3, SVG Export Plug-In . SVG Version: 6.00 Build 0)  -->
<svg version="1.1" id="vase_x5F_flowers_x5F_shadow"
	  x="0px" y="0px" viewBox="0 0 595.28 841.89"
	 style="enable-background:new 0 0 595.28 841.89;" xml:space="preserve">
<style type="text/css">
	.vase_flowers_shadow_0{fill:#E5DB8B;}
	.vase_flowers_shadow_1{fill:#550937;}
	.vase_flowers_shadow_2{fill:#B97075;}
	.vase_flowers_shadow_3{fill:none;stroke:#550937;stroke-width:0.1;stroke-miterlimit:10;}
</style>
<g>
	<ellipse class="vase_flowers_light_0" cx="286.44" cy="435.73" rx="1.28" ry="1.82"/>
	<g>
		<g>
			<g>
				<g>
					<path class="vase_flowers_light_1" d="M285.4,435.72c0,0.01,0.04,0.01,0.05,0.01C285.44,435.71,285.39,435.72,285.4,435.72z"/>
					<polygon class="vase_flowers_light_1" points="285.32,435.49 285.34,435.5 285.3,435.46 					"/>
					<path class="vase_flowers_light_1" d="M285.35,435.28c-0.07,0.01,0,0.08-0.03,0.11l-0.02,0l0.06,0.02C285.35,435.38,285.33,435.31,285.35,435.28
						z"/>
					<path class="vase_flowers_light_1" d="M285.52,435.21c-0.03,0-0.02-0.03-0.01,0.02l0.01,0C285.52,435.23,285.52,435.22,285.52,435.21z"/>
					<path class="vase_flowers_light_1" d="M285.52,435.23C285.51,435.25,285.54,435.22,285.52,435.23L285.52,435.23z"/>
					<path class="vase_flowers_light_1" d="M285.53,435.13l0.02,0.03c0.02,0,0.03-0.02,0.04-0.01C285.57,435.13,285.56,435.13,285.53,435.13z"/>
					<path class="vase_flowers_light_1" d="M285.48,435.09l0.01,0.02C285.5,435.11,285.5,435.11,285.48,435.09z"/>
					<path class="vase_flowers_light_1" d="M285.5,435.15l-0.01-0.04c-0.01,0-0.03-0.01,0,0.02C285.47,435.12,285.49,435.13,285.5,435.15z"/>
					<path class="vase_flowers_light_1" d="M285.49,435.16c-0.02,0.01-0.03,0.03-0.05,0C285.43,435.21,285.48,435.21,285.49,435.16z"/>
					<path class="vase_flowers_light_1" d="M285.28,435.26l-0.02,0.02l0.02,0.02C285.27,435.29,285.3,435.26,285.28,435.26z"/>
					<path class="vase_flowers_light_1" d="M285.61,434.99c-0.01-0.01-0.04-0.01-0.06-0.01l0.01,0.02C285.58,435,285.59,434.98,285.61,434.99z"/>
					<path class="vase_flowers_light_1" d="M285.55,434.98l-0.01-0.04C285.53,434.96,285.54,434.97,285.55,434.98z"/>
					<polygon class="vase_flowers_light_1" points="285.41,435.07 285.45,435.13 285.41,435.06 					"/>
					<polygon class="vase_flowers_light_1" points="285.66,434.89 285.68,434.91 285.65,434.87 					"/>
					<path class="vase_flowers_light_1" d="M285.68,434.82c0.02,0.02,0.05,0.01,0.06,0.03c0-0.02-0.01-0.04-0.02-0.07
						C285.73,434.8,285.71,434.81,285.68,434.82z"/>
					<path class="vase_flowers_light_1" d="M285.7,434.74c0,0.01,0.01,0.02,0.02,0.04C285.72,434.76,285.71,434.75,285.7,434.74z"/>
					<path class="vase_flowers_light_1" d="M285.57,434.89c0.01,0,0.03,0.01,0.05,0l-0.04-0.01L285.57,434.89z"/>
					<path class="vase_flowers_light_1" d="M285.57,434.88L285.57,434.88c0.01-0.01,0.01-0.02,0.01-0.02S285.58,434.87,285.57,434.88z"/>
					<path class="vase_flowers_light_1" d="M285.56,434.9L285.56,434.9C285.57,434.89,285.56,434.89,285.56,434.9z"/>
					<path class="vase_flowers_light_1" d="M285.47,435c-0.02-0.02-0.03-0.07-0.07-0.05C285.42,434.98,285.45,434.96,285.47,435z"/>
					<path class="vase_flowers_light_1" d="M285.51,434.89l-0.02,0.03c0.01,0,0.03,0,0.04,0.02L285.51,434.89z"/>
					<polygon class="vase_flowers_light_1" points="285.5,434.87 285.51,434.89 285.52,434.88 					"/>
					<path class="vase_flowers_light_1" d="M285.64,434.76c-0.01-0.02,0-0.03,0-0.05c-0.02,0.01-0.03,0.03-0.04,0.04
						C285.62,434.76,285.64,434.78,285.64,434.76z"/>
					<path class="vase_flowers_light_1" d="M285.6,434.82L285.6,434.82C285.6,434.81,285.6,434.82,285.6,434.82z"/>
					<polygon class="vase_flowers_light_1" points="285.73,434.57 285.73,434.57 285.73,434.58 					"/>
					<path class="vase_flowers_light_1" d="M285.6,434.76c-0.01,0.01-0.01,0.02,0,0.03C285.6,434.78,285.6,434.77,285.6,434.76
						C285.6,434.75,285.6,434.76,285.6,434.76z"/>
					<path class="vase_flowers_light_1" d="M285.71,434.69l-0.03,0.01C285.69,434.7,285.72,434.7,285.71,434.69z"/>
					<path class="vase_flowers_light_1" d="M285.61,434.82L285.61,434.82C285.63,434.82,285.62,434.82,285.61,434.82z"/>
					<path class="vase_flowers_light_1" d="M285.61,434.82c0-0.01-0.01-0.02-0.01-0.03c0,0.01,0,0.02,0,0.03L285.61,434.82z"/>
					<path class="vase_flowers_light_1" d="M285.55,434.37c0.03,0.03,0.03,0.08-0.02,0.08c0.01,0.05,0.13,0.1,0.2,0.12
						c-0.01-0.01-0.03-0.02-0.03-0.06c-0.02-0.01-0.08,0.03-0.1-0.01c0.01-0.05,0.03-0.02,0.06-0.03c-0.05-0.01-0.02-0.09-0.08-0.13
						l-0.01,0.05C285.57,434.39,285.56,434.36,285.55,434.37z"/>
					<path class="vase_flowers_light_1" d="M285.69,434.62l0,0.01c0.01-0.01,0.03-0.01,0.07-0.01c0-0.03-0.01-0.04-0.02-0.05L285.69,434.62
						L285.69,434.62z"/>
					<path class="vase_flowers_light_1" d="M285.66,434.68c-0.03-0.03-0.03-0.07-0.08-0.07c-0.02,0.04,0.02,0.04,0.02,0.07
						C285.62,434.62,285.61,434.71,285.66,434.68c0,0.01-0.01,0.02-0.01,0.03c0.01-0.01,0.02-0.01,0.03-0.02l0,0l0,0l0,0
						c-0.01,0-0.01,0-0.01,0l0,0L285.66,434.68c0.02-0.01,0.01,0,0.01,0.01l0.01,0l0,0l0.01-0.06
						C285.68,434.64,285.67,434.65,285.66,434.68z"/>
					<path class="vase_flowers_light_1" d="M285.32,434.89l0.01,0C285.33,434.88,285.32,434.88,285.32,434.89z"/>
					<path class="vase_flowers_light_1" d="M285.36,434.87c0,0.01,0.02,0.02,0.01,0.03c-0.02,0.01-0.02-0.01-0.03-0.01c0.01,0.01,0.02,0.04,0.05,0.02
						l0-0.01c0.02-0.02,0.09-0.03,0.09-0.03C285.43,434.87,285.4,434.87,285.36,434.87z"/>
					<path class="vase_flowers_light_1" d="M285.49,434.76l0.01-0.06l-0.05,0.01l0.02,0.01C285.45,434.74,285.48,434.75,285.49,434.76z"/>
					<polygon class="vase_flowers_light_1" points="285.75,434.58 285.79,434.61 285.75,434.55 					"/>
					<polygon class="vase_flowers_light_1" points="285.79,434.53 285.82,434.55 285.81,434.53 					"/>
					<path class="vase_flowers_light_1" d="M287.81,436.63l0,0.02C287.81,436.64,287.81,436.63,287.81,436.63z"/>
					<path class="vase_flowers_light_1" d="M287.86,436.5l-0.02-0.01C287.85,436.5,287.85,436.5,287.86,436.5z"/>
					<path class="vase_flowers_light_1" d="M287.02,434.44c-0.01,0.04-0.04,0.09-0.01,0.06l0.03-0.03C287.03,434.46,287.02,434.45,287.02,434.44z"/>
					<path class="vase_flowers_light_1" d="M287.72,435.42c0,0,0.01-0.01,0.01-0.01l-0.04-0.01L287.72,435.42z"/>
					<path class="vase_flowers_light_1" d="M287.9,435.42l-0.02,0.04C287.88,435.45,287.89,435.43,287.9,435.42z"/>
					<path class="vase_flowers_light_1" d="M287.47,437.32l0.02,0.05C287.51,437.34,287.48,437.34,287.47,437.32z"/>
					<path class="vase_flowers_light_1" d="M286.28,434.17c0.02,0.01,0.03,0.02,0.04,0.02C286.3,434.17,286.27,434.13,286.28,434.17z"/>
					<path class="vase_flowers_light_1" d="M287.39,436.43c0,0.01,0.01,0.02,0.02,0.02C287.41,436.44,287.4,436.43,287.39,436.43z"/>
					<path class="vase_flowers_light_1" d="M286.37,434.18C286.36,434.17,286.36,434.17,286.37,434.18c-0.02,0-0.03,0.01-0.04,0.01
						C286.34,434.2,286.35,434.21,286.37,434.18z"/>
					<path class="vase_flowers_light_1" d="M285.1,436.73L285.1,436.73C285.1,436.72,285.1,436.73,285.1,436.73z"/>
					<path class="vase_flowers_light_1" d="M285.36,435.92c0,0.01,0,0.02,0.01,0.03C285.37,435.94,285.37,435.94,285.36,435.92z"/>
					<path class="vase_flowers_light_1" d="M285.98,434.36C285.97,434.37,285.98,434.37,285.98,434.36L285.98,434.36z"/>
					<path class="vase_flowers_light_1" d="M285.81,434.28c0-0.01,0-0.01-0.01-0.02C285.81,434.27,285.81,434.28,285.81,434.28z"/>
					<path class="vase_flowers_light_1" d="M286.5,433.91L286.5,433.91C286.49,433.9,286.49,433.9,286.5,433.91z"/>
					<path class="vase_flowers_light_1" d="M285.95,434.36l0.02,0C285.97,434.36,285.96,434.36,285.95,434.36z"/>
					<path class="vase_flowers_light_1" d="M285.96,434.37c-0.01,0-0.01,0-0.01,0C285.96,434.38,285.96,434.39,285.96,434.37z"/>
					<path class="vase_flowers_light_1" d="M285.99,434.35c-0.01,0.01-0.01,0.01-0.02,0.01l0.01,0C285.98,434.36,285.98,434.35,285.99,434.35z"/>
					<path class="vase_flowers_light_1" d="M286.21,437.65L286.21,437.65C286.18,437.66,286.19,437.66,286.21,437.65z"/>
					<polygon class="vase_flowers_light_1" points="287.63,434.51 287.62,434.51 287.62,434.51 					"/>
					<path class="vase_flowers_light_1" d="M287.68,434.55c-0.06,0-0.06-0.02-0.06-0.04l-0.1,0.08L287.68,434.55z"/>
					<path class="vase_flowers_light_1" d="M287.69,436.94l0.06-0.02c0.03,0.08-0.01,0.11,0.06,0.09c-0.11-0.07,0.07-0.17-0.05-0.24l0.04-0.02
						c0,0.01,0,0.01,0,0.02c0.08-0.03-0.07-0.08-0.03-0.14c0.02-0.02,0.04-0.03,0.05-0.01l-0.01-0.07c0.01-0.01,0.03,0,0.02,0.01
						l0.02-0.09l0,0c-0.02-0.02-0.04-0.05-0.05-0.07c0.02-0.02,0.01,0.01,0.03,0.01l-0.02-0.05c0.04-0.01,0.06,0.04,0.05,0.07
						c0.14-0.01-0.02-0.05,0.08-0.12l0.01,0.05c0.08-0.01,0.06-0.05,0.12-0.1c-0.03,0.01-0.14,0.08-0.16,0.02
						c0.01-0.01,0.02-0.03,0-0.06c0.05,0.01,0.04-0.02,0.04-0.06l0.06,0.01c-0.01-0.04-0.04-0.04-0.07-0.07
						c0.01-0.04,0.06-0.04,0.1-0.05c0.02-0.07-0.08,0.04-0.09-0.04c0.03-0.05,0.01-0.09-0.03-0.16c0.02-0.04,0.04,0.01,0.06,0
						l-0.05-0.04c0-0.01,0.02-0.01,0.02,0c-0.02-0.03-0.06,0-0.08-0.05c-0.07-0.01,0.1-0.09,0.02-0.14c0.02-0.01,0.04,0.01,0.06,0
						c-0.06-0.07-0.04-0.06-0.11-0.12l0.04-0.06c-0.04,0.04-0.11,0-0.16-0.04c-0.02,0.02-0.04,0.03-0.05,0.04l-0.04-0.06
						c0.01-0.01,0.03-0.01,0.06,0l-0.02-0.01c0.02-0.03,0.06-0.02,0.1-0.01l-0.04,0.03c0.04,0.01,0.08,0.02,0.12,0.01
						c-0.01,0-0.02-0.01-0.02-0.02c0.01,0,0.02,0,0.03,0c0.01,0-0.01-0.01-0.03-0.02l0.07-0.02l-0.03,0l0.03-0.1
						c-0.08-0.05-0.19-0.09-0.25-0.17c0.06,0.01,0.08-0.02,0.14-0.03c-0.06,0.04,0.05,0.07,0.04,0.13c0-0.03,0.03-0.03,0.04-0.02
						l-0.08-0.08c0.05-0.01,0.03-0.03,0.05-0.06c-0.09,0.04-0.08-0.05-0.12-0.08c0.03-0.01,0.07-0.01,0.07,0.03
						c0.06-0.07-0.13-0.03-0.09-0.1c0,0.01,0,0.02,0.02,0.02c-0.04-0.02-0.04-0.08,0-0.08l0,0.01c-0.02-0.08-0.09-0.22-0.17-0.19
						c0.01-0.01,0.1-0.04,0.11-0.04c-0.11,0-0.21,0.01-0.31,0.02c0.07-0.03,0.2-0.15,0.26-0.12c0-0.02,0-0.05-0.04-0.07
						c0,0.02-0.07,0.08-0.09,0.07c0.04-0.08,0.02-0.05,0.05-0.14c0,0.02-0.11,0.07-0.12,0.04c0.02-0.01,0.09-0.07,0.11-0.06
						l-0.14,0.01c0.03,0,0.08-0.05,0.09-0.09c-0.01,0.02-0.04-0.05-0.06-0.06l0,0.04c-0.04-0.08-0.18,0.04-0.22-0.02
						c0.02-0.01,0.12-0.08,0.1-0.12c-0.06,0.02-0.25,0.15-0.32,0.14l0.01-0.03l-0.06,0c0.07-0.06,0.26-0.14,0.35-0.15
						c-0.01-0.04,0.02-0.03-0.02-0.07c0.01-0.04,0.05-0.02,0.07-0.01l-0.08-0.1c-0.04,0.06-0.12,0-0.14,0.05
						c0.05,0,0.1,0.01,0.14,0.02c-0.04,0.05-0.17,0.1-0.23,0.05c0-0.03,0.08-0.09,0.09-0.11c-0.02,0.01-0.09-0.01-0.09-0.02
						l0.05-0.01c-0.03-0.05-0.11,0.04-0.13-0.04c-0.01-0.01-0.02-0.1-0.04-0.07c0,0.08-0.09,0.3-0.13,0.35
						c0-0.01-0.05-0.09-0.05-0.14c-0.01-0.07,0.08-0.12,0.08-0.18c-0.01,0.02-0.03,0.03-0.04,0.04c-0.01-0.02,0.02-0.05-0.02-0.06
						c-0.02,0.06-0.09-0.02-0.03,0.05c-0.04,0.01-0.04-0.02-0.09-0.03c0.01,0.04-0.06,0.14-0.1,0.16c0-0.02,0-0.04-0.01-0.05
						c-0.07-0.02-0.12-0.03-0.19-0.03c-0.01-0.01-0.05-0.03-0.04-0.06c-0.01,0.01-0.01,0.04-0.04,0.05c-0.06-0.05,0.05-0.02,0-0.08
						c0,0.04-0.05,0.07-0.08,0.1c0.03,0.05,0.08-0.01,0.11-0.04c0.01,0.09-0.02,0.18-0.07,0.24c-0.04,0.04-0.04-0.04-0.04-0.03
						c-0.1,0.02-0.01,0.17-0.11,0.15c-0.05-0.03-0.06-0.09-0.08-0.12c0.03-0.04,0.08,0,0.11-0.02l-0.05-0.01
						c0-0.02,0.03-0.05,0.05-0.04c-0.05-0.03-0.17,0.08-0.26,0.1c0,0.02-0.01,0.06,0.01,0.06l0.02-0.02c0.04,0.02,0,0.08,0.04,0.07
						c-0.01,0.05,0,0.1-0.05,0.12l-0.05-0.04c0.01,0.01,0.05,0,0.04-0.02c0,0.03-0.11-0.01-0.07,0.06l0.05,0.01
						c0,0.05,0.02,0.12-0.02,0.13c0.06,0.03,0-0.01,0.07,0.01c-0.08-0.04,0.07-0.07-0.02-0.1c0.08,0.04,0.06-0.01,0.13,0.02
						c-0.01-0.01-0.03-0.02-0.01-0.03c0-0.01-0.01-0.02-0.01-0.02l0,0l0,0l0,0c-0.01,0-0.02-0.01-0.03-0.01
						c-0.02-0.04,0.02-0.08,0.02-0.11c0.02,0,0.01,0.02,0.03,0.03l0-0.04c0.03,0.03,0.08,0.03,0.06,0.08l0.03-0.02
						c0.03,0.01,0.06,0.01,0.07-0.02c0.02,0,0.02-0.06,0.02-0.03c0.01-0.02,0.03-0.03,0.04-0.05l0,0.01
						c0.05-0.02,0.09-0.11,0.17-0.04c0.02-0.01,0.03-0.03,0.07-0.02l0.01,0.04c0.02-0.02,0.06,0.04,0.08,0
						c0.01,0.1,0.1,0.04,0.13,0.07l0.02-0.05c0.02,0.01,0.06,0,0.1,0l0.02-0.04c0.05-0.02,0.06,0.07,0.11,0.09
						c-0.01,0.01-0.02,0-0.02-0.01c-0.01,0.11,0.15,0.02,0.15,0.12c0.02,0,0.03,0.01,0.02,0.03l0,0l0,0l0,0.03
						c0-0.01,0.01-0.02,0.01-0.03c0.01,0.01,0.02,0.02,0.04,0.02l-0.03,0.04l0,0c0,0.02,0.03-0.01,0.05-0.04c0.01,0,0.02,0,0.04,0
						c-0.05,0.06,0.05,0.02,0,0.09c0.04-0.02,0.08,0.05,0.15,0.01c-0.01,0.01-0.01,0.01-0.02,0.01c0,0.02,0.01,0.05,0.04,0.05
						l-0.05,0.04l0.09,0c-0.02,0.04-0.03,0.06-0.09,0.06c0.09,0.02,0.05,0.03,0.14,0.05l-0.04,0.02c0.01,0.02,0.07,0.02,0.05,0.05
						c-0.05,0.07,0.08,0.21,0.04,0.35c0.11-0.05-0.04,0.06,0.05,0.05c-0.03,0.01-0.04,0.03-0.06,0.02c0.04,0.05-0.03,0.09,0.06,0.12
						c-0.03,0.01-0.04-0.01-0.06,0c0.01,0,0.03,0.01,0.01,0.02c-0.02,0.01-0.02,0-0.04-0.01c0.02,0.06,0.1,0.05,0.18,0.04
						c-0.03,0.04-0.03,0.05,0.03,0.07c-0.02,0.01-0.05,0.03-0.06,0c0,0.02-0.02,0.13,0.04,0.13c-0.02,0.01,0,0.03,0,0.04
						c0,0.05-0.01,0.05,0,0.1l0.01-0.01c0.08,0.02,0.02,0.04,0.03,0.08l-0.01,0c-0.06,0.09,0.03,0.04-0.04,0.12l0.05,0
						c0.1,0.02-0.07,0.07-0.03,0.13l0.03-0.01c0.03,0.03-0.15,0.06-0.17,0.08c-0.01,0-0.01-0.01-0.02-0.02
						c-0.07,0.06,0.06,0.02,0.07,0.07c-0.04,0-0.08-0.03-0.09,0.01c-0.03,0.01,0.09,0.12,0.01,0.15c0.03,0,0.06-0.01,0.07,0.02
						c0,0.04-0.12,0.07-0.05,0.12c-0.01,0-0.02,0-0.02,0c0.01,0.03,0,0.1,0.04,0.13c-0.16-0.04,0,0.2-0.14,0.13l-0.03,0.08
						l-0.01-0.01c-0.04,0.04-0.02,0.08,0,0.11c-0.02,0.01-0.02-0.01-0.03-0.02c-0.07,0.05-0.07,0.05-0.05,0.16l-0.04-0.03
						c0.01,0.03-0.13,0.03-0.15,0.12c0,0-0.01-0.01-0.01-0.02c-0.03,0.11-0.23,0-0.16,0.17l-0.03,0.07
						c0.07-0.02,0.02,0.08,0.07,0.09c-0.03,0.03-0.1-0.01-0.07-0.04l0.01,0.01c-0.03-0.09-0.1,0-0.12-0.06
						c-0.13,0.05-0.27,0-0.38-0.02l0,0.08l-0.04-0.01c-0.01-0.02,0-0.06,0.03-0.05c-0.01-0.04-0.06,0.02-0.06,0.04
						c-0.05-0.05,0.05-0.07,0.03-0.08l-0.02,0l0,0.01c-0.03,0.02-0.04,0.05-0.07,0.03c-0.02-0.02,0.01-0.05,0-0.05
						c0,0,0-0.01-0.01-0.01l-0.05-0.03l-0.01,0.06c-0.04,0.01-0.05-0.03-0.05,0.04c0.01-0.1-0.17-0.15-0.17-0.2
						c-0.06,0.01-0.08-0.02-0.11-0.06c0,0.02-0.04,0.07-0.07,0.03c0.11-0.08-0.01-0.09,0.05-0.18c-0.03,0.06-0.08-0.08-0.13,0.01
						c-0.01-0.04,0.04-0.03,0.05-0.07c-0.09-0.04-0.06-0.16-0.12-0.24c-0.02,0.01-0.03,0.03-0.07,0.02l0.06-0.08
						c-0.02-0.01-0.1,0.02-0.06-0.03c-0.01,0.01-0.03,0.03-0.04,0.02c0.01-0.21-0.19-0.38-0.05-0.6c-0.03,0.03-0.04,0.01-0.04-0.01
						c-0.01,0.01-0.04,0-0.07,0.01l0.06-0.09c-0.07-0.01-0.01-0.09-0.07-0.1l0.01,0.03c-0.08-0.04-0.16,0.06-0.26,0.06
						c0.08,0.04-0.12,0.13,0.01,0.19c-0.02,0.02-0.03-0.01-0.05,0c0.04,0.01,0.05,0.04,0.04,0.08l-0.01,0
						c0.03,0.12,0,0.17,0.01,0.31l0.04-0.02c0,0.03-0.01,0.04-0.02,0.06c0.08,0.01-0.02-0.08,0.07-0.07
						c-0.09,0.06,0.06,0.19-0.04,0.25c0.01,0.04,0.05-0.03,0.06,0.01l-0.02,0.02l0.04,0c0.01,0.03-0.02,0.06-0.05,0.07
						c0-0.01-0.01-0.02-0.02-0.02c-0.02,0.05,0.05,0.1,0.05,0.11l0-0.05c0.07,0.1,0.12,0.26,0.24,0.32l0.01-0.02
						c0.09,0.05,0.02,0.07,0.1,0.14l-0.01,0c0.03,0,0.06,0.01,0.07,0.03c-0.04,0,0,0.07-0.05,0.07c0.1,0.04,0.06,0.01,0.17,0
						l-0.01,0.04c0.04-0.01,0.05-0.02,0.09,0c-0.05,0-0.01,0.07-0.07,0.07c0.04,0.13,0.18,0.03,0.16,0.15
						c0.09-0.06-0.05-0.1-0.02-0.1c0-0.04,0.07-0.04,0.1-0.02c0.03,0.02-0.01,0.14,0.07,0.18c-0.01,0-0.01,0-0.02,0
						c0.02,0.04,0.08-0.01,0.1,0.04c0.04-0.05,0.05,0.02,0.08-0.05c-0.03,0-0.05,0-0.08-0.01c0.05,0,0.11-0.08,0.17-0.02
						c-0.01,0.01-0.03,0.03-0.05,0.04c0.02,0.03,0.04-0.01,0.06,0.02c-0.02,0.08-0.1,0-0.17,0.04c0.02,0.04,0.11-0.03,0.06,0.05
						c0.06-0.1,0.09,0.04,0.17-0.04l-0.01,0.05c0.01-0.01,0.03-0.03,0.05-0.02l-0.04,0.06c0.06-0.05,0.1,0.06,0.16,0.02
						c-0.11,0.01-0.03-0.05-0.07-0.09c0.12-0.07,0.08,0.13,0.23,0.08c-0.02,0.01-0.08-0.02-0.05-0.04c0.03,0,0.07,0.01,0.09,0.04
						c0.1-0.03-0.03-0.04,0.01-0.08c0.05,0.05,0.04-0.03,0.07-0.06l0.02,0.05c0.11-0.01-0.01-0.1,0.09-0.1l-0.01,0.08l0.04-0.03
						l0.01,0.05c0.03-0.06,0.05-0.06,0.11-0.07c-0.03-0.02-0.04-0.08,0-0.1c0.04,0.01,0.01,0.05,0.06,0.01
						c0,0.03,0.01,0.07-0.04,0.05c0.01,0.02,0,0.03,0.01,0.05c0.05,0.01,0.08-0.04,0.1-0.06c-0.01,0-0.02,0.01-0.03,0.01l0.04-0.11
						c0.02,0,0.02,0.02,0.02,0.04c0.01-0.02,0.01-0.04,0.03-0.06c0.02,0.03,0.05,0.06,0.03,0.11l0.04-0.09
						c0.02,0.01,0.07,0,0.07,0.02c0.06-0.02,0.03-0.14,0.1-0.17c0-0.01,0-0.02,0-0.03c0.04-0.04,0.12-0.06,0.12-0.15l0.08,0
						c0.02-0.06-0.1,0-0.08-0.09c0.02-0.07,0.06,0.01,0.09,0c-0.01-0.05-0.05-0.13,0.03-0.16
						C287.71,436.91,287.69,436.92,287.69,436.94z M287.89,436.3c0.01,0.01,0.03,0.05,0,0.05
						C287.84,436.32,287.87,436.31,287.89,436.3z M287.8,435.32c0.02,0.01,0.01,0.02,0,0.04
						C287.79,435.34,287.79,435.33,287.8,435.32z M286.07,434.25L286.07,434.25C286.09,434.25,286.08,434.25,286.07,434.25z
						 M286.02,434.26c0,0.01,0,0.01,0.01,0.02c0-0.01,0-0.02,0.01-0.02C286.03,434.24,286.02,434.24,286.02,434.26z M286.15,437.29
						l0,0.01C286.13,437.31,286.14,437.3,286.15,437.29z"/>
					<path class="vase_flowers_light_1" d="M287.87,435.42c-0.01,0-0.02,0.01-0.03,0.01C287.86,435.43,287.87,435.43,287.87,435.42z"/>
					<polygon class="vase_flowers_light_1" points="287.47,437.31 287.46,437.31 287.47,437.32 					"/>
					<path class="vase_flowers_light_1" d="M286.77,433.76c0.01,0.01,0.01,0.02,0.02,0.03C286.79,433.78,286.79,433.77,286.77,433.76z"/>
					<path class="vase_flowers_light_1" d="M285.9,434.47l0.01-0.03c-0.01,0.01-0.02,0.01-0.03,0.01C285.89,434.45,285.9,434.46,285.9,434.47z"/>
					<path class="vase_flowers_light_1" d="M285.49,434.5c0,0.01-0.01,0.01,0,0.02l0.02,0.01C285.52,434.51,285.51,434.49,285.49,434.5z"/>
					<path class="vase_flowers_light_1" d="M285.76,434.38c-0.03-0.03-0.04,0-0.05,0.02l0,0C285.76,434.44,285.76,434.41,285.76,434.38z"/>
					<path class="vase_flowers_light_1" d="M285.71,434.4c0,0.01-0.01,0.01-0.01,0.02C285.72,434.44,285.71,434.42,285.71,434.4z"/>
					<path class="vase_flowers_light_1" d="M285.99,434.31c-0.01,0,0.03,0.04,0.01,0.03C286.02,434.39,286.01,434.26,285.99,434.31z"/>
					<polygon class="vase_flowers_light_1" points="285.65,434.3 285.69,434.33 285.67,434.29 					"/>
					<path class="vase_flowers_light_1" d="M285.81,434.2l-0.04,0.01c0.01,0.01,0.01,0.01,0,0.02C285.79,434.22,285.82,434.21,285.81,434.2z"/>
					<path class="vase_flowers_light_1" d="M285.77,434.23c-0.01,0.01-0.02,0.02-0.02,0.03C285.76,434.25,285.77,434.24,285.77,434.23z"/>
					<polygon class="vase_flowers_light_1" points="285.67,434.25 285.69,434.25 285.71,434.24 					"/>
					<path class="vase_flowers_light_1" d="M286.16,434l0.03-0.03c0-0.02-0.01-0.02-0.03-0.01C286.16,433.98,286.15,433.99,286.16,434z"/>
					<path class="vase_flowers_light_1" d="M285.99,433.93c0.02,0,0.02,0.01,0.03,0.03l-0.02-0.06L285.99,433.93z"/>
					<path class="vase_flowers_light_1" d="M286.11,433.86c0-0.02,0.05-0.07-0.01-0.05C286.1,433.83,286.06,433.86,286.11,433.86z"/>
					<polygon class="vase_flowers_light_1" points="286.78,433.95 286.77,433.94 286.74,434.04 					"/>
					<path class="vase_flowers_light_1" d="M287.43,434.11c-0.02-0.06-0.06,0.03-0.07-0.03c-0.03,0.01,0.01,0.05-0.01,0.05
						C287.39,434.15,287.39,434.17,287.43,434.11z"/>
					<path class="vase_flowers_light_1" d="M287.35,434.14c-0.01,0-0.01,0-0.02,0C287.34,434.14,287.34,434.14,287.35,434.14z"/>
					<polygon class="vase_flowers_light_1" points="285.41,435.81 285.43,435.78 285.39,435.8 					"/>
					<path class="vase_flowers_light_1" d="M285.33,435.75l0.06-0.01l-0.06-0.02C285.34,435.74,285.34,435.75,285.33,435.75z"/>
					<path class="vase_flowers_light_1" d="M288.03,436.22l-0.01-0.01c-0.02,0-0.02,0.01-0.03,0.03L288.03,436.22z"/>
					<polygon class="vase_flowers_light_1" points="287.85,436.69 287.86,436.69 287.8,436.68 					"/>
					<path class="vase_flowers_light_1" d="M287.73,437.12c0.01-0.01,0.01-0.04,0.02-0.05C287.74,437.1,287.67,437.08,287.73,437.12z"/>
				</g>
			</g>
		</g>
	</g>
</g>
<g>
	<g>
		<ellipse class="vase_flowers_light_2" cx="280.33" cy="401.88" rx="1.28" ry="1.82"/>
	</g>
	<g>
		<g>
			<g>
				<ellipse class="vase_flowers_light_2" cx="319.35" cy="466.13" rx="2.57" ry="3.64"/>
			</g>
			<g>
				<path class="vase_flowers_light_2" d="M319.31,491.34c0-1.99-1.14-3.61-2.54-3.61s-2.54,1.62-2.54,3.61"/>
			</g>
			<g>
				<path class="vase_flowers_light_2" d="M306.75,479.77c0,2.01,1.15,3.64,2.57,3.64c1.42,0,2.57-1.63,2.57-3.64s-1.15-3.64-2.57-3.64
					C307.89,476.13,306.75,477.76,306.75,479.77"/>
			</g>
			<g>
				<path class="vase_flowers_light_2" d="M364.43,490.69c0-2.01-1.15-3.64-2.57-3.64c-1.42,0-2.57,1.63-2.57,3.64"/>
			</g>
			<g>
				<ellipse class="vase_flowers_light_2" cx="359.29" cy="467.36" rx="2.57" ry="3.64"/>
			</g>
			<g>
				<ellipse class="vase_flowers_light_2" cx="363.28" cy="452.54" rx="2.57" ry="3.64"/>
			</g>
			<g>
				<ellipse class="vase_flowers_light_2" cx="340.1" cy="440.54" rx="2.57" ry="3.64"/>
			</g>
			<g>
				<ellipse class="vase_flowers_light_2" cx="319.51" cy="429.3" rx="2.57" ry="3.64"/>
			</g>
			<g>
				<ellipse class="vase_flowers_light_2" cx="360.71" cy="434.34" rx="2.57" ry="3.64"/>
			</g>
			<g>
				<ellipse class="vase_flowers_light_2" cx="334.05" cy="425.66" rx="2.57" ry="3.64"/>
			</g>
			<g>
				<ellipse class="vase_flowers_light_2" cx="335.65" cy="453.78" rx="2.57" ry="3.64"/>
			</g>
			<g>
				<ellipse class="vase_flowers_light_2" cx="338.21" cy="473.63" rx="2.57" ry="3.64"/>
			</g>
			<g>
				<ellipse class="vase_flowers_light_2" cx="326.39" cy="441.48" rx="2.57" ry="3.64"/>
			</g>
			<g>
				<ellipse class="vase_flowers_light_2" cx="327.36" cy="409.6" rx="2.57" ry="3.64"/>
			</g>
			<g>
				<ellipse class="vase_flowers_light_2" cx="359.29" cy="481.22" rx="1.28" ry="1.82"/>
			</g>
			<g>
				<ellipse class="vase_flowers_light_2" cx="367.11" cy="468.17" rx="1.28" ry="1.82"/>
			</g>
			<g>
				<ellipse class="vase_flowers_light_2" cx="326.39" cy="463.72" rx="1.28" ry="1.82"/>
			</g>
			<g>
				<ellipse class="vase_flowers_light_2" cx="319.31" cy="485.63" rx="1.27" ry="1.8"/>
			</g>
			<g>
				<ellipse class="vase_flowers_light_2" cx="315.5" cy="471.81" rx="1.28" ry="1.82"/>
			</g>
			<g>
				<ellipse class="vase_flowers_light_2" cx="324.04" cy="428.95" rx="1.28" ry="1.82"/>
			</g>
			<g>
				<ellipse class="vase_flowers_light_2" cx="332.57" cy="448.9" rx="1.28" ry="1.82"/>
			</g>
			<g>
				<ellipse class="vase_flowers_light_2" cx="336.62" cy="480.79" rx="1.28" ry="1.82"/>
			</g>
			<g>
				<ellipse class="vase_flowers_light_2" cx="324.34" cy="448.16" rx="1.28" ry="1.82"/>
			</g>
			<g>
				<ellipse class="vase_flowers_light_2" cx="325.63" cy="435.37" rx="1.28" ry="1.82"/>
			</g>
			<g>
				<ellipse class="vase_flowers_light_2" cx="334.31" cy="439.3" rx="1.28" ry="1.82"/>
			</g>
			<g>
				<ellipse class="vase_flowers_light_2" cx="364.69" cy="429.3" rx="1.28" ry="1.82"/>
			</g>
			<g>
				<ellipse class="vase_flowers_light_2" cx="359.29" cy="440.55" rx="1.28" ry="1.82"/>
			</g>
			<g>
				<ellipse class="vase_flowers_light_2" cx="315.66" cy="461.57" rx="1.28" ry="1.82"/>
			</g>
			<g>
				
					<ellipse transform="matrix(0.6167 -0.7872 0.7872 0.6167 -222.657 444.6548)" class="vase_flowers_light_2" cx="345.28" cy="450.97" rx="2.57" ry="3.64"/>
			</g>
			<g>
				
					<ellipse transform="matrix(0.6167 -0.7872 0.7872 0.6167 -224.5791 453.4262)" class="vase_flowers_light_2" cx="353.32" cy="457.33" rx="2.54" ry="3.61"/>
			</g>
			<g>
				
					<ellipse transform="matrix(0.6167 -0.7872 0.7872 0.6167 -229.5032 465.7562)" class="vase_flowers_light_2" cx="363.52" cy="468.55" rx="2.54" ry="3.61"/>
			</g>
			<g>
				
					<ellipse transform="matrix(0.6167 -0.7872 0.7872 0.6167 -226.2768 461.3357)" class="vase_flowers_light_2" cx="360.6" cy="463.03" rx="1.27" ry="1.8"/>
			</g>
			<g>
				
					<ellipse transform="matrix(0.1153 -0.9933 0.9933 0.1153 -157.0598 754.814)" class="vase_flowers_light_2" cx="345.23" cy="465.58" rx="3.64" ry="2.57"/>
			</g>
			<g>
				
					<ellipse transform="matrix(0.1153 -0.9933 0.9933 0.1153 -168.2592 762.6035)" class="vase_flowers_light_2" cx="344" cy="475.76" rx="3.61" ry="2.54"/>
			</g>
			<g>
				
					<ellipse transform="matrix(0.1153 -0.9933 0.9933 0.1153 -178.3184 769.6644)" class="vase_flowers_light_2" cx="342.94" cy="484.94" rx="1.8" ry="1.27"/>
			</g>
			<g>
				<ellipse class="vase_flowers_light_2" cx="323.56" cy="480.1" rx="2.57" ry="3.64"/>
			</g>
			<g>
				<ellipse class="vase_flowers_light_2" cx="320.82" cy="476.49" rx="2.54" ry="3.61"/>
			</g>
			<g>
				<ellipse class="vase_flowers_light_2" cx="314.64" cy="445.68" rx="2.57" ry="3.64"/>
			</g>
			<g>
				<ellipse class="vase_flowers_light_2" cx="314.6" cy="455.94" rx="2.54" ry="3.61"/>
			</g>
			<g>
				<ellipse class="vase_flowers_light_2" cx="312.05" cy="470.89" rx="2.54" ry="3.61"/>
			</g>
			<g>
				<ellipse class="vase_flowers_light_2" cx="304.6" cy="459.32" rx="2.57" ry="3.64"/>
			</g>
			<g>
				<ellipse class="vase_flowers_light_2" cx="301.38" cy="449.32" rx="2.57" ry="3.64"/>
			</g>
			<g>
				<ellipse class="vase_flowers_light_2" cx="293.45" cy="447.72" rx="2.57" ry="3.64"/>
			</g>
			<g>
				<ellipse class="vase_flowers_light_2" cx="290.89" cy="437.9" rx="2.57" ry="3.64"/>
			</g>
			<g>
				<ellipse class="vase_flowers_light_2" cx="357.15" cy="470.24" rx="2.57" ry="3.64"/>
			</g>
			<g>
				<ellipse class="vase_flowers_light_2" cx="354.58" cy="446.91" rx="2.57" ry="3.64"/>
			</g>
			<g>
				<ellipse class="vase_flowers_light_2" cx="358.56" cy="432.09" rx="2.57" ry="3.64"/>
			</g>
			<g>
				<ellipse class="vase_flowers_light_2" cx="335.39" cy="420.09" rx="2.57" ry="3.64"/>
			</g>
			<g>
				<ellipse class="vase_flowers_light_2" cx="317.36" cy="396.42" rx="2.57" ry="3.64"/>
			</g>
			<g>
				<ellipse class="vase_flowers_light_2" cx="314.8" cy="408.85" rx="2.57" ry="3.64"/>
			</g>
			<g>
				<ellipse class="vase_flowers_light_2" cx="372.37" cy="448.69" rx="2.57" ry="3.64"/>
			</g>
			<g>
				<ellipse class="vase_flowers_light_2" cx="382.07" cy="435.73" rx="2.57" ry="3.64"/>
			</g>
			<g>
				<ellipse class="vase_flowers_light_2" cx="356" cy="413.89" rx="2.57" ry="3.64"/>
			</g>
			<g>
				<ellipse class="vase_flowers_light_2" cx="329.34" cy="405.21" rx="2.57" ry="3.64"/>
			</g>
			<g>
				<ellipse class="vase_flowers_light_2" cx="275.97" cy="404.86" rx="2.57" ry="3.64"/>
			</g>
			<g>
				<ellipse class="vase_flowers_light_2" cx="330.94" cy="433.33" rx="2.57" ry="3.64"/>
			</g>
			<g>
				<ellipse class="vase_flowers_light_2" cx="333.5" cy="453.18" rx="2.57" ry="3.64"/>
			</g>
			<g>
				<ellipse class="vase_flowers_light_2" cx="321.68" cy="421.03" rx="2.57" ry="3.64"/>
			</g>
			<g>
				<ellipse class="vase_flowers_light_2" cx="261.41" cy="405.21" rx="2.57" ry="3.64"/>
			</g>
			<g>
				<ellipse class="vase_flowers_light_2" cx="369.8" cy="459.61" rx="2.57" ry="3.64"/>
			</g>
			<g>
				<ellipse class="vase_flowers_light_2" cx="382.07" cy="460.77" rx="2.57" ry="3.64"/>
			</g>
			<g>
				<ellipse class="vase_flowers_light_2" cx="362.4" cy="495.42" rx="2.57" ry="3.64"/>
			</g>
			<g>
				<ellipse class="vase_flowers_light_2" cx="371.03" cy="491.78" rx="2.57" ry="3.64"/>
			</g>
			<g>
				<ellipse class="vase_flowers_light_2" cx="368.46" cy="476.15" rx="2.57" ry="3.64"/>
			</g>
			<g>
				<ellipse class="vase_flowers_light_2" cx="348.47" cy="476.7" rx="2.57" ry="3.64"/>
			</g>
			<g>
				<ellipse class="vase_flowers_light_2" cx="322.65" cy="389.15" rx="2.57" ry="3.64"/>
			</g>
			<g>
				<ellipse class="vase_flowers_light_2" cx="379.5" cy="426.34" rx="2.57" ry="3.64"/>
			</g>
			<g>
				<ellipse class="vase_flowers_light_2" cx="280.33" cy="427.71" rx="2.57" ry="3.64"/>
			</g>
			<g>
				<ellipse class="vase_flowers_light_2" cx="269.02" cy="417.53" rx="2.57" ry="3.64"/>
			</g>
			<g>
				<ellipse class="vase_flowers_light_2" cx="270.84" cy="427.71" rx="2.57" ry="3.64"/>
			</g>
			<g>
				<ellipse class="vase_flowers_light_2" cx="354.58" cy="460.77" rx="1.28" ry="1.82"/>
			</g>
			<g>
				<ellipse class="vase_flowers_light_2" cx="362.4" cy="447.72" rx="1.28" ry="1.82"/>
			</g>
			<g>
				<ellipse class="vase_flowers_light_2" cx="321.68" cy="443.27" rx="1.28" ry="1.82"/>
			</g>
			<g>
				<ellipse class="vase_flowers_light_2" cx="353.3" cy="473.88" rx="1.28" ry="1.82"/>
			</g>
			<g>
				<ellipse class="vase_flowers_light_2" cx="380.79" cy="454.78" rx="1.28" ry="1.82"/>
			</g>
			<g>
				<ellipse class="vase_flowers_light_2" cx="378.22" cy="467.11" rx="1.28" ry="1.82"/>
			</g>
			<g>
				<ellipse class="vase_flowers_light_2" cx="369.8" cy="471.05" rx="1.28" ry="1.82"/>
			</g>
			<g>
				<ellipse class="vase_flowers_light_2" cx="361.26" cy="489.96" rx="1.28" ry="1.82"/>
			</g>
			<g>
				<ellipse class="vase_flowers_light_2" cx="375.65" cy="494.26" rx="1.28" ry="1.82"/>
			</g>
			<g>
				<ellipse class="vase_flowers_light_2" cx="318.35" cy="483.39" rx="1.28" ry="1.82"/>
			</g>
			<g>
				<ellipse class="vase_flowers_light_2" cx="314.6" cy="465.18" rx="1.27" ry="1.8"/>
			</g>
			<g>
				<ellipse class="vase_flowers_light_2" cx="310.79" cy="451.36" rx="1.28" ry="1.82"/>
			</g>
			<g>
				<ellipse class="vase_flowers_light_2" cx="300.1" cy="460.34" rx="1.28" ry="1.82"/>
			</g>
			<g>
				<ellipse class="vase_flowers_light_2" cx="298.81" cy="444.75" rx="1.28" ry="1.82"/>
			</g>
			<g>
				<ellipse class="vase_flowers_light_2" cx="275.97" cy="426.34" rx="1.28" ry="1.82"/>
			</g>
			<g>
				<ellipse class="vase_flowers_light_2" cx="319.33" cy="408.5" rx="1.28" ry="1.82"/>
			</g>
			<g>
				<ellipse class="vase_flowers_light_2" cx="327.86" cy="428.45" rx="1.28" ry="1.82"/>
			</g>
			<g>
				<ellipse class="vase_flowers_light_2" cx="331.91" cy="447.72" rx="1.28" ry="1.82"/>
			</g>
			<g>
				<ellipse class="vase_flowers_light_2" cx="331.91" cy="460.34" rx="1.28" ry="1.82"/>
			</g>
			<g>
				<ellipse class="vase_flowers_light_2" cx="319.63" cy="427.71" rx="1.28" ry="1.82"/>
			</g>
			<g>
				<ellipse class="vase_flowers_light_2" cx="320.92" cy="414.92" rx="1.28" ry="1.82"/>
			</g>
			<g>
				<ellipse class="vase_flowers_light_2" cx="332.08" cy="400.06" rx="1.28" ry="1.82"/>
			</g>
			<g>
				<ellipse class="vase_flowers_light_2" cx="329.6" cy="418.85" rx="1.28" ry="1.82"/>
			</g>
			<g>
				<ellipse class="vase_flowers_light_2" cx="359.98" cy="408.85" rx="1.28" ry="1.82"/>
			</g>
			<g>
				<ellipse class="vase_flowers_light_2" cx="354.58" cy="420.1" rx="1.28" ry="1.82"/>
			</g>
			<g>
				<ellipse class="vase_flowers_light_2" cx="376.4" cy="421.17" rx="1.28" ry="1.82"/>
			</g>
			<g>
				<ellipse class="vase_flowers_light_2" cx="382.07" cy="443.56" rx="1.28" ry="1.82"/>
			</g>
			<g>
				<ellipse class="vase_flowers_light_2" cx="310.95" cy="441.12" rx="1.28" ry="1.82"/>
			</g>
			<g>
				
					<ellipse transform="matrix(0.6167 -0.7872 0.7872 0.6167 -270.609 421.7417)" class="vase_flowers_light_2" cx="297.77" cy="488.75" rx="2.54" ry="3.61"/>
			</g>
			<g>
				
					<ellipse transform="matrix(0.6167 -0.7872 0.7872 0.6167 -270.235 394.2321)" class="vase_flowers_light_2" cx="269.71" cy="474.61" rx="2.57" ry="3.64"/>
			</g>
			<g>
				
					<ellipse transform="matrix(0.6167 -0.7872 0.7872 0.6167 -272.1572 403.0035)" class="vase_flowers_light_2" cx="277.76" cy="480.97" rx="2.54" ry="3.61"/>
			</g>
			<g>
				
					<ellipse transform="matrix(0.6167 -0.7872 0.7872 0.6167 -277.0813 415.3335)" class="vase_flowers_light_2" cx="287.96" cy="492.19" rx="2.54" ry="3.61"/>
			</g>
			<g>
				
					<ellipse transform="matrix(0.6167 -0.7872 0.7872 0.6167 -273.8549 410.913)" class="vase_flowers_light_2" cx="285.03" cy="486.67" rx="1.27" ry="1.8"/>
			</g>
			<g>
				
					<ellipse transform="matrix(0.6167 -0.7872 0.7872 0.6167 -272.5593 389.6453)" class="vase_flowers_light_2" cx="263.84" cy="474.71" rx="1.28" ry="1.82"/>
			</g>
			<g>
				
					<ellipse transform="matrix(0.4977 -0.8674 0.8674 0.4977 -277.3938 528.2214)" class="vase_flowers_light_2" cx="317.33" cy="503.59" rx="2.54" ry="3.61"/>
			</g>
			<g>
				
					<ellipse transform="matrix(0.4977 -0.8674 0.8674 0.4977 -271.3286 497.3148)" class="vase_flowers_light_2" cx="293.68" cy="482.9" rx="2.57" ry="3.64"/>
			</g>
			<g>
				
					<ellipse transform="matrix(0.4977 -0.8674 0.8674 0.4977 -271.2427 507.5943)" class="vase_flowers_light_2" cx="302.6" cy="487.97" rx="2.54" ry="3.61"/>
			</g>
			<g>
				
					<ellipse transform="matrix(0.4977 -0.8674 0.8674 0.4977 -268.6326 522.5679)" class="vase_flowers_light_2" cx="316.83" cy="493.2" rx="2.54" ry="3.61"/>
			</g>
			<g>
				
					<ellipse transform="matrix(0.4977 -0.8674 0.8674 0.4977 -271.2051 516.8553)" class="vase_flowers_light_2" cx="310.61" cy="492.57" rx="1.27" ry="1.8"/>
			</g>
			<g>
				
					<ellipse transform="matrix(0.6167 -0.7872 0.7872 0.6167 -238.8229 409.7477)" class="vase_flowers_light_2" cx="301.35" cy="450.12" rx="2.54" ry="3.61"/>
			</g>
			<g>
				
					<ellipse transform="matrix(0.6167 -0.7872 0.7872 0.6167 -238.449 382.2382)" class="vase_flowers_light_2" cx="273.29" cy="435.98" rx="2.57" ry="3.64"/>
			</g>
			<g>
				
					<ellipse transform="matrix(0.6167 -0.7872 0.7872 0.6167 -240.3712 391.0095)" class="vase_flowers_light_2" cx="281.33" cy="442.34" rx="2.54" ry="3.61"/>
			</g>
			<g>
				
					<ellipse transform="matrix(0.6167 -0.7872 0.7872 0.6167 -245.2952 403.3395)" class="vase_flowers_light_2" cx="291.53" cy="453.56" rx="2.54" ry="3.61"/>
			</g>
			<g>
				
					<ellipse transform="matrix(0.6167 -0.7872 0.7872 0.6167 -242.0688 398.919)" class="vase_flowers_light_2" cx="288.61" cy="448.03" rx="1.27" ry="1.8"/>
			</g>
			<g>
				
					<ellipse transform="matrix(0.6167 -0.7872 0.7872 0.6167 -208.7385 460.6172)" class="vase_flowers_light_2" cx="368.63" cy="444.66" rx="2.54" ry="3.61"/>
			</g>
			<g>
				
					<ellipse transform="matrix(0.6167 -0.7872 0.7872 0.6167 -208.3645 433.1077)" class="vase_flowers_light_2" cx="340.57" cy="430.52" rx="2.57" ry="3.64"/>
			</g>
			<g>
				
					<ellipse transform="matrix(0.6167 -0.7872 0.7872 0.6167 -210.2867 441.879)" class="vase_flowers_light_2" cx="348.61" cy="436.88" rx="2.54" ry="3.61"/>
			</g>
			<g>
				
					<ellipse transform="matrix(0.6167 -0.7872 0.7872 0.6167 -215.2108 454.209)" class="vase_flowers_light_2" cx="358.81" cy="448.1" rx="2.54" ry="3.61"/>
			</g>
			<g>
				
					<ellipse transform="matrix(0.6167 -0.7872 0.7872 0.6167 -211.9844 449.7885)" class="vase_flowers_light_2" cx="355.89" cy="442.58" rx="1.27" ry="1.8"/>
			</g>
			<g>
				
					<ellipse transform="matrix(0.8093 -0.5874 0.5874 0.8093 -226.0016 310.5717)" class="vase_flowers_light_2" cx="365.29" cy="503.34" rx="3.61" ry="2.54"/>
			</g>
			<g>
				
					<ellipse transform="matrix(0.8093 -0.5874 0.5874 0.8093 -208.3713 318.6823)" class="vase_flowers_light_2" cx="386.6" cy="480.24" rx="3.64" ry="2.57"/>
			</g>
			<g>
				
					<ellipse transform="matrix(0.8093 -0.5874 0.5874 0.8093 -213.4769 314.9338)" class="vase_flowers_light_2" cx="378.27" cy="486.23" rx="3.61" ry="2.54"/>
			</g>
			<g>
				
					<ellipse transform="matrix(0.8093 -0.5874 0.5874 0.8093 -220.0183 308.2317)" class="vase_flowers_light_2" cx="364.68" cy="492.95" rx="3.61" ry="2.54"/>
			</g>
			<g>
				
					<ellipse transform="matrix(0.8093 -0.5874 0.5874 0.8093 -218.091 311.5765)" class="vase_flowers_light_2" cx="370.8" cy="491.66" rx="1.8" ry="1.27"/>
			</g>
			<g>
				<g>
					
						<ellipse transform="matrix(0.1153 -0.9933 0.9933 0.1153 -169.7375 762.3116)" class="vase_flowers_light_2" cx="343.1" cy="476.45" rx="3.61" ry="2.54"/>
				</g>
				<g>
					
						<ellipse transform="matrix(0.1153 -0.9933 0.9933 0.1153 -140.9141 732.0424)" class="vase_flowers_light_2" cx="340.52" cy="445.13" rx="3.64" ry="2.57"/>
				</g>
				<g>
					
						<ellipse transform="matrix(0.1153 -0.9933 0.9933 0.1153 -152.1134 739.8319)" class="vase_flowers_light_2" cx="339.29" cy="455.31" rx="3.61" ry="2.54"/>
				</g>
				<g>
					
						<ellipse transform="matrix(0.1153 -0.9933 0.9933 0.1153 -170.3327 748.4872)" class="vase_flowers_light_2" cx="335.04" cy="469.87" rx="3.61" ry="2.54"/>
				</g>
				<g>
					
						<ellipse transform="matrix(0.1153 -0.9933 0.9933 0.1153 -162.1727 746.8928)" class="vase_flowers_light_2" cx="338.23" cy="464.49" rx="1.8" ry="1.27"/>
				</g>
			</g>
			<g>
				<g>
					
						<ellipse transform="matrix(0.1153 -0.9933 0.9933 0.1153 -179.5661 686.0481)" class="vase_flowers_light_2" cx="295.37" cy="443.83" rx="3.61" ry="2.54"/>
				</g>
				<g>
					
						<ellipse transform="matrix(0.1153 -0.9933 0.9933 0.1153 -150.7426 655.7789)" class="vase_flowers_light_2" cx="292.79" cy="412.52" rx="3.64" ry="2.57"/>
				</g>
				<g>
					
						<ellipse transform="matrix(0.1153 -0.9933 0.9933 0.1153 -161.942 663.5684)" class="vase_flowers_light_2" cx="291.56" cy="422.7" rx="3.61" ry="2.54"/>
				</g>
				<g>
					
						<ellipse transform="matrix(0.1153 -0.9933 0.9933 0.1153 -180.1613 672.2237)" class="vase_flowers_light_2" cx="287.31" cy="437.26" rx="3.61" ry="2.54"/>
				</g>
				<g>
					
						<ellipse transform="matrix(0.1153 -0.9933 0.9933 0.1153 -172.0013 670.6294)" class="vase_flowers_light_2" cx="290.5" cy="431.88" rx="1.8" ry="1.27"/>
				</g>
			</g>
			<g>
				<g>
					
						<ellipse transform="matrix(0.8861 -0.4635 0.4635 0.8861 -165.0735 231.3496)" class="vase_flowers_light_2" cx="388.16" cy="451.53" rx="2.54" ry="3.61"/>
				</g>
				<g>
					
						<ellipse transform="matrix(0.8861 -0.4635 0.4635 0.8861 -155.9965 219.4102)" class="vase_flowers_light_2" cx="368.41" cy="427.09" rx="2.57" ry="3.64"/>
				</g>
				<g>
					
						<ellipse transform="matrix(0.8861 -0.4635 0.4635 0.8861 -159.6811 222.6329)" class="vase_flowers_light_2" cx="373.12" cy="436.2" rx="2.54" ry="3.61"/>
				</g>
				<g>
					
						<ellipse transform="matrix(0.8861 -0.4635 0.4635 0.8861 -165.8348 226.4431)" class="vase_flowers_light_2" cx="377.8" cy="450.63" rx="2.54" ry="3.61"/>
				</g>
				<g>
					
						<ellipse transform="matrix(0.8861 -0.4635 0.4635 0.8861 -162.9881 225.5505)" class="vase_flowers_light_2" cx="377.41" cy="444.39" rx="1.27" ry="1.8"/>
				</g>
			</g>
		</g>
		<g>
			<g>
				
					<ellipse transform="matrix(0.7148 -0.6993 0.6993 0.7148 -191.7954 305.472)" class="vase_flowers_light_2" cx="278.65" cy="387.9" rx="3.61" ry="2.54"/>
			</g>
			<g>
				
					<ellipse transform="matrix(0.7148 -0.6993 0.6993 0.7148 -214.9979 300.4939)" class="vase_flowers_light_2" cx="260.94" cy="413.86" rx="3.64" ry="2.57"/>
			</g>
			<g>
				
					<ellipse transform="matrix(0.7148 -0.6993 0.6993 0.7148 -207.9053 303.606)" class="vase_flowers_light_2" cx="268.3" cy="406.72" rx="3.61" ry="2.54"/>
			</g>
			<g>
				
					<ellipse transform="matrix(0.7148 -0.6993 0.6993 0.7148 -198.3119 309.8599)" class="vase_flowers_light_2" cx="280.77" cy="398.08" rx="3.61" ry="2.54"/>
			</g>
			<g>
				
					<ellipse transform="matrix(0.7148 -0.6993 0.6993 0.7148 -201.5037 306.3821)" class="vase_flowers_light_2" cx="274.91" cy="400.26" rx="1.8" ry="1.27"/>
			</g>
		</g>
	</g>
</g>
</svg>
