<?xml version="1.0" encoding="utf-8"?>
<!-- Generator: Adobe Illustrator 26.0.3, SVG Export Plug-In . SVG Version: 6.00 Build 0)  -->
<svg version="1.1" id="vase_x5F_flowers_x5F_light"
	 x="0px" y="0px" viewBox="0 0 595.28 841.89" style="enable-background:new 0 0 595.28 841.89;" xml:space="preserve">
<style type="text/css">
	.vase_flowers_light_0{fill:#E5DB8B;}
	.vase_flowers_light_1{fill:#550937;}
	.vase_flowers_light_2{fill:none;stroke:#550937;stroke-width:0.1;stroke-miterlimit:10;}
	.vase_flowers_light_3{fill:#BA8E81;}
</style>
<g>
	<ellipse class="vase_flowers_light_0" cx="286.44" cy="435.73" rx="1.28" ry="1.82"/>
	<g>
		<g>
			<g>
				<g>
					<path class="vase_flowers_light_1" d="M285.4,435.72c0,0.01,0.04,0.01,0.05,0.01C285.44,435.71,285.39,435.72,285.4,435.72z"/>
					<polygon class="vase_flowers_light_1" points="285.32,435.49 285.34,435.5 285.3,435.46 					"/>
					<path class="vase_flowers_light_1" d="M285.35,435.28c-0.07,0.01,0,0.08-0.03,0.11l-0.02,0l0.06,0.02C285.35,435.38,285.33,435.31,285.35,435.28
						z"/>
					<path class="vase_flowers_light_1" d="M285.52,435.21c-0.03,0-0.02-0.03-0.01,0.02l0.01,0C285.52,435.23,285.52,435.22,285.52,435.21z"/>
					<path class="vase_flowers_light_1" d="M285.52,435.23C285.51,435.25,285.54,435.22,285.52,435.23L285.52,435.23z"/>
					<path class="vase_flowers_light_1" d="M285.53,435.13l0.02,0.03c0.02,0,0.03-0.02,0.04-0.01C285.57,435.13,285.56,435.13,285.53,435.13z"/>
					<path class="vase_flowers_light_1" d="M285.48,435.09l0.01,0.02C285.5,435.11,285.5,435.11,285.48,435.09z"/>
					<path class="vase_flowers_light_1" d="M285.5,435.15l-0.01-0.04c-0.01,0-0.03-0.01,0,0.02C285.47,435.12,285.49,435.13,285.5,435.15z"/>
					<path class="vase_flowers_light_1" d="M285.49,435.16c-0.02,0.01-0.03,0.03-0.05,0C285.43,435.21,285.48,435.21,285.49,435.16z"/>
					<path class="vase_flowers_light_1" d="M285.28,435.26l-0.02,0.02l0.02,0.02C285.27,435.29,285.3,435.26,285.28,435.26z"/>
					<path class="vase_flowers_light_1" d="M285.61,434.99c-0.01-0.01-0.04-0.01-0.06-0.01l0.01,0.02C285.58,435,285.59,434.98,285.61,434.99z"/>
					<path class="vase_flowers_light_1" d="M285.55,434.98l-0.01-0.04C285.53,434.96,285.54,434.97,285.55,434.98z"/>
					<polygon class="vase_flowers_light_1" points="285.41,435.07 285.45,435.13 285.41,435.06 					"/>
					<polygon class="vase_flowers_light_1" points="285.66,434.89 285.68,434.91 285.65,434.87 					"/>
					<path class="vase_flowers_light_1" d="M285.68,434.82c0.02,0.02,0.05,0.01,0.06,0.03c0-0.02-0.01-0.04-0.02-0.07
						C285.73,434.8,285.71,434.81,285.68,434.82z"/>
					<path class="vase_flowers_light_1" d="M285.7,434.74c0,0.01,0.01,0.02,0.02,0.04C285.72,434.76,285.71,434.75,285.7,434.74z"/>
					<path class="vase_flowers_light_1" d="M285.57,434.89c0.01,0,0.03,0.01,0.05,0l-0.04-0.01L285.57,434.89z"/>
					<path class="vase_flowers_light_1" d="M285.57,434.88L285.57,434.88c0.01-0.01,0.01-0.02,0.01-0.02S285.58,434.87,285.57,434.88z"/>
					<path class="vase_flowers_light_1" d="M285.56,434.9L285.56,434.9C285.57,434.89,285.56,434.89,285.56,434.9z"/>
					<path class="vase_flowers_light_1" d="M285.47,435c-0.02-0.02-0.03-0.07-0.07-0.05C285.42,434.98,285.45,434.96,285.47,435z"/>
					<path class="vase_flowers_light_1" d="M285.51,434.89l-0.02,0.03c0.01,0,0.03,0,0.04,0.02L285.51,434.89z"/>
					<polygon class="vase_flowers_light_1" points="285.5,434.87 285.51,434.89 285.52,434.88 					"/>
					<path class="vase_flowers_light_1" d="M285.64,434.76c-0.01-0.02,0-0.03,0-0.05c-0.02,0.01-0.03,0.03-0.04,0.04
						C285.62,434.76,285.64,434.78,285.64,434.76z"/>
					<path class="vase_flowers_light_1" d="M285.6,434.82L285.6,434.82C285.6,434.81,285.6,434.82,285.6,434.82z"/>
					<polygon class="vase_flowers_light_1" points="285.73,434.57 285.73,434.57 285.73,434.58 					"/>
					<path class="vase_flowers_light_1" d="M285.6,434.76c-0.01,0.01-0.01,0.02,0,0.03C285.6,434.78,285.6,434.77,285.6,434.76
						C285.6,434.75,285.6,434.76,285.6,434.76z"/>
					<path class="vase_flowers_light_1" d="M285.71,434.69l-0.03,0.01C285.69,434.7,285.72,434.7,285.71,434.69z"/>
					<path class="vase_flowers_light_1" d="M285.61,434.82L285.61,434.82C285.63,434.82,285.62,434.82,285.61,434.82z"/>
					<path class="vase_flowers_light_1" d="M285.61,434.82c0-0.01-0.01-0.02-0.01-0.03c0,0.01,0,0.02,0,0.03L285.61,434.82z"/>
					<path class="vase_flowers_light_1" d="M285.55,434.37c0.03,0.03,0.03,0.08-0.02,0.08c0.01,0.05,0.13,0.1,0.2,0.12
						c-0.01-0.01-0.03-0.02-0.03-0.06c-0.02-0.01-0.08,0.03-0.1-0.01c0.01-0.05,0.03-0.02,0.06-0.03c-0.05-0.01-0.02-0.09-0.08-0.13
						l-0.01,0.05C285.57,434.39,285.56,434.36,285.55,434.37z"/>
					<path class="vase_flowers_light_1" d="M285.69,434.62l0,0.01c0.01-0.01,0.03-0.01,0.07-0.01c0-0.03-0.01-0.04-0.02-0.05L285.69,434.62
						L285.69,434.62z"/>
					<path class="vase_flowers_light_1" d="M285.66,434.68c-0.03-0.03-0.03-0.07-0.08-0.07c-0.02,0.04,0.02,0.04,0.02,0.07
						C285.62,434.62,285.61,434.71,285.66,434.68c0,0.01-0.01,0.02-0.01,0.03c0.01-0.01,0.02-0.01,0.03-0.02l0,0l0,0l0,0
						c-0.01,0-0.01,0-0.01,0l0,0L285.66,434.68c0.02-0.01,0.01,0,0.01,0.01l0.01,0l0,0l0.01-0.06
						C285.68,434.64,285.67,434.65,285.66,434.68z"/>
					<path class="vase_flowers_light_1" d="M285.32,434.89l0.01,0C285.33,434.88,285.32,434.88,285.32,434.89z"/>
					<path class="vase_flowers_light_1" d="M285.36,434.87c0,0.01,0.02,0.02,0.01,0.03c-0.02,0.01-0.02-0.01-0.03-0.01c0.01,0.01,0.02,0.04,0.05,0.02
						l0-0.01c0.02-0.02,0.09-0.03,0.09-0.03C285.43,434.87,285.4,434.87,285.36,434.87z"/>
					<path class="vase_flowers_light_1" d="M285.49,434.76l0.01-0.06l-0.05,0.01l0.02,0.01C285.45,434.74,285.48,434.75,285.49,434.76z"/>
					<polygon class="vase_flowers_light_1" points="285.75,434.58 285.79,434.61 285.75,434.55 					"/>
					<polygon class="vase_flowers_light_1" points="285.79,434.53 285.82,434.55 285.81,434.53 					"/>
					<path class="vase_flowers_light_1" d="M287.81,436.63l0,0.02C287.81,436.64,287.81,436.63,287.81,436.63z"/>
					<path class="vase_flowers_light_1" d="M287.86,436.5l-0.02-0.01C287.85,436.5,287.85,436.5,287.86,436.5z"/>
					<path class="vase_flowers_light_1" d="M287.02,434.44c-0.01,0.04-0.04,0.09-0.01,0.06l0.03-0.03C287.03,434.46,287.02,434.45,287.02,434.44z"/>
					<path class="vase_flowers_light_1" d="M287.72,435.42c0,0,0.01-0.01,0.01-0.01l-0.04-0.01L287.72,435.42z"/>
					<path class="vase_flowers_light_1" d="M287.9,435.42l-0.02,0.04C287.88,435.45,287.89,435.43,287.9,435.42z"/>
					<path class="vase_flowers_light_1" d="M287.47,437.32l0.02,0.05C287.51,437.34,287.48,437.34,287.47,437.32z"/>
					<path class="vase_flowers_light_1" d="M286.28,434.17c0.02,0.01,0.03,0.02,0.04,0.02C286.3,434.17,286.27,434.13,286.28,434.17z"/>
					<path class="vase_flowers_light_1" d="M287.39,436.43c0,0.01,0.01,0.02,0.02,0.02C287.41,436.44,287.4,436.43,287.39,436.43z"/>
					<path class="vase_flowers_light_1" d="M286.37,434.18C286.36,434.17,286.36,434.17,286.37,434.18c-0.02,0-0.03,0.01-0.04,0.01
						C286.34,434.2,286.35,434.21,286.37,434.18z"/>
					<path class="vase_flowers_light_1" d="M285.1,436.73L285.1,436.73C285.1,436.72,285.1,436.73,285.1,436.73z"/>
					<path class="vase_flowers_light_1" d="M285.36,435.92c0,0.01,0,0.02,0.01,0.03C285.37,435.94,285.37,435.94,285.36,435.92z"/>
					<path class="vase_flowers_light_1" d="M285.98,434.36C285.97,434.37,285.98,434.37,285.98,434.36L285.98,434.36z"/>
					<path class="vase_flowers_light_1" d="M285.81,434.28c0-0.01,0-0.01-0.01-0.02C285.81,434.27,285.81,434.28,285.81,434.28z"/>
					<path class="vase_flowers_light_1" d="M286.5,433.91L286.5,433.91C286.49,433.9,286.49,433.9,286.5,433.91z"/>
					<path class="vase_flowers_light_1" d="M285.95,434.36l0.02,0C285.97,434.36,285.96,434.36,285.95,434.36z"/>
					<path class="vase_flowers_light_1" d="M285.96,434.37c-0.01,0-0.01,0-0.01,0C285.96,434.38,285.96,434.39,285.96,434.37z"/>
					<path class="vase_flowers_light_1" d="M285.99,434.35c-0.01,0.01-0.01,0.01-0.02,0.01l0.01,0C285.98,434.36,285.98,434.35,285.99,434.35z"/>
					<path class="vase_flowers_light_1" d="M286.21,437.65L286.21,437.65C286.18,437.66,286.19,437.66,286.21,437.65z"/>
					<polygon class="vase_flowers_light_1" points="287.63,434.51 287.62,434.51 287.62,434.51 					"/>
					<path class="vase_flowers_light_1" d="M287.68,434.55c-0.06,0-0.06-0.02-0.06-0.04l-0.1,0.08L287.68,434.55z"/>
					<path class="vase_flowers_light_1" d="M287.69,436.94l0.06-0.02c0.03,0.08-0.01,0.11,0.06,0.09c-0.11-0.07,0.07-0.17-0.05-0.24l0.04-0.02
						c0,0.01,0,0.01,0,0.02c0.08-0.03-0.07-0.08-0.03-0.14c0.02-0.02,0.04-0.03,0.05-0.01l-0.01-0.07c0.01-0.01,0.03,0,0.02,0.01
						l0.02-0.09l0,0c-0.02-0.02-0.04-0.05-0.05-0.07c0.02-0.02,0.01,0.01,0.03,0.01l-0.02-0.05c0.04-0.01,0.06,0.04,0.05,0.07
						c0.14-0.01-0.02-0.05,0.08-0.12l0.01,0.05c0.08-0.01,0.06-0.05,0.12-0.1c-0.03,0.01-0.14,0.08-0.16,0.02
						c0.01-0.01,0.02-0.03,0-0.06c0.05,0.01,0.04-0.02,0.04-0.06l0.06,0.01c-0.01-0.04-0.04-0.04-0.07-0.07
						c0.01-0.04,0.06-0.04,0.1-0.05c0.02-0.07-0.08,0.04-0.09-0.04c0.03-0.05,0.01-0.09-0.03-0.16c0.02-0.04,0.04,0.01,0.06,0
						l-0.05-0.04c0-0.01,0.02-0.01,0.02,0c-0.02-0.03-0.06,0-0.08-0.05c-0.07-0.01,0.1-0.09,0.02-0.14c0.02-0.01,0.04,0.01,0.06,0
						c-0.06-0.07-0.04-0.06-0.11-0.12l0.04-0.06c-0.04,0.04-0.11,0-0.16-0.04c-0.02,0.02-0.04,0.03-0.05,0.04l-0.04-0.06
						c0.01-0.01,0.03-0.01,0.06,0l-0.02-0.01c0.02-0.03,0.06-0.02,0.1-0.01l-0.04,0.03c0.04,0.01,0.08,0.02,0.12,0.01
						c-0.01,0-0.02-0.01-0.02-0.02c0.01,0,0.02,0,0.03,0c0.01,0-0.01-0.01-0.03-0.02l0.07-0.02l-0.03,0l0.03-0.1
						c-0.08-0.05-0.19-0.09-0.25-0.17c0.06,0.01,0.08-0.02,0.14-0.03c-0.06,0.04,0.05,0.07,0.04,0.13c0-0.03,0.03-0.03,0.04-0.02
						l-0.08-0.08c0.05-0.01,0.03-0.03,0.05-0.06c-0.09,0.04-0.08-0.05-0.12-0.08c0.03-0.01,0.07-0.01,0.07,0.03
						c0.06-0.07-0.13-0.03-0.09-0.1c0,0.01,0,0.02,0.02,0.02c-0.04-0.02-0.04-0.08,0-0.08l0,0.01c-0.02-0.08-0.09-0.22-0.17-0.19
						c0.01-0.01,0.1-0.04,0.11-0.04c-0.11,0-0.21,0.01-0.31,0.02c0.07-0.03,0.2-0.15,0.26-0.12c0-0.02,0-0.05-0.04-0.07
						c0,0.02-0.07,0.08-0.09,0.07c0.04-0.08,0.02-0.05,0.05-0.14c0,0.02-0.11,0.07-0.12,0.04c0.02-0.01,0.09-0.07,0.11-0.06
						l-0.14,0.01c0.03,0,0.08-0.05,0.09-0.09c-0.01,0.02-0.04-0.05-0.06-0.06l0,0.04c-0.04-0.08-0.18,0.04-0.22-0.02
						c0.02-0.01,0.12-0.08,0.1-0.12c-0.06,0.02-0.25,0.15-0.32,0.14l0.01-0.03l-0.06,0c0.07-0.06,0.26-0.14,0.35-0.15
						c-0.01-0.04,0.02-0.03-0.02-0.07c0.01-0.04,0.05-0.02,0.07-0.01l-0.08-0.1c-0.04,0.06-0.12,0-0.14,0.05
						c0.05,0,0.1,0.01,0.14,0.02c-0.04,0.05-0.17,0.1-0.23,0.05c0-0.03,0.08-0.09,0.09-0.11c-0.02,0.01-0.09-0.01-0.09-0.02
						l0.05-0.01c-0.03-0.05-0.11,0.04-0.13-0.04c-0.01-0.01-0.02-0.1-0.04-0.07c0,0.08-0.09,0.3-0.13,0.35
						c0-0.01-0.05-0.09-0.05-0.14c-0.01-0.07,0.08-0.12,0.08-0.18c-0.01,0.02-0.03,0.03-0.04,0.04c-0.01-0.02,0.02-0.05-0.02-0.06
						c-0.02,0.06-0.09-0.02-0.03,0.05c-0.04,0.01-0.04-0.02-0.09-0.03c0.01,0.04-0.06,0.14-0.1,0.16c0-0.02,0-0.04-0.01-0.05
						c-0.07-0.02-0.12-0.03-0.19-0.03c-0.01-0.01-0.05-0.03-0.04-0.06c-0.01,0.01-0.01,0.04-0.04,0.05c-0.06-0.05,0.05-0.02,0-0.08
						c0,0.04-0.05,0.07-0.08,0.1c0.03,0.05,0.08-0.01,0.11-0.04c0.01,0.09-0.02,0.18-0.07,0.24c-0.04,0.04-0.04-0.04-0.04-0.03
						c-0.1,0.02-0.01,0.17-0.11,0.15c-0.05-0.03-0.06-0.09-0.08-0.12c0.03-0.04,0.08,0,0.11-0.02l-0.05-0.01
						c0-0.02,0.03-0.05,0.05-0.04c-0.05-0.03-0.17,0.08-0.26,0.1c0,0.02-0.01,0.06,0.01,0.06l0.02-0.02c0.04,0.02,0,0.08,0.04,0.07
						c-0.01,0.05,0,0.1-0.05,0.12l-0.05-0.04c0.01,0.01,0.05,0,0.04-0.02c0,0.03-0.11-0.01-0.07,0.06l0.05,0.01
						c0,0.05,0.02,0.12-0.02,0.13c0.06,0.03,0-0.01,0.07,0.01c-0.08-0.04,0.07-0.07-0.02-0.1c0.08,0.04,0.06-0.01,0.13,0.02
						c-0.01-0.01-0.03-0.02-0.01-0.03c0-0.01-0.01-0.02-0.01-0.02l0,0l0,0l0,0c-0.01,0-0.02-0.01-0.03-0.01
						c-0.02-0.04,0.02-0.08,0.02-0.11c0.02,0,0.01,0.02,0.03,0.03l0-0.04c0.03,0.03,0.08,0.03,0.06,0.08l0.03-0.02
						c0.03,0.01,0.06,0.01,0.07-0.02c0.02,0,0.02-0.06,0.02-0.03c0.01-0.02,0.03-0.03,0.04-0.05l0,0.01
						c0.05-0.02,0.09-0.11,0.17-0.04c0.02-0.01,0.03-0.03,0.07-0.02l0.01,0.04c0.02-0.02,0.06,0.04,0.08,0
						c0.01,0.1,0.1,0.04,0.13,0.07l0.02-0.05c0.02,0.01,0.06,0,0.1,0l0.02-0.04c0.05-0.02,0.06,0.07,0.11,0.09
						c-0.01,0.01-0.02,0-0.02-0.01c-0.01,0.11,0.15,0.02,0.15,0.12c0.02,0,0.03,0.01,0.02,0.03l0,0l0,0l0,0.03
						c0-0.01,0.01-0.02,0.01-0.03c0.01,0.01,0.02,0.02,0.04,0.02l-0.03,0.04l0,0c0,0.02,0.03-0.01,0.05-0.04c0.01,0,0.02,0,0.04,0
						c-0.05,0.06,0.05,0.02,0,0.09c0.04-0.02,0.08,0.05,0.15,0.01c-0.01,0.01-0.01,0.01-0.02,0.01c0,0.02,0.01,0.05,0.04,0.05
						l-0.05,0.04l0.09,0c-0.02,0.04-0.03,0.06-0.09,0.06c0.09,0.02,0.05,0.03,0.14,0.05l-0.04,0.02c0.01,0.02,0.07,0.02,0.05,0.05
						c-0.05,0.07,0.08,0.21,0.04,0.35c0.11-0.05-0.04,0.06,0.05,0.05c-0.03,0.01-0.04,0.03-0.06,0.02c0.04,0.05-0.03,0.09,0.06,0.12
						c-0.03,0.01-0.04-0.01-0.06,0c0.01,0,0.03,0.01,0.01,0.02c-0.02,0.01-0.02,0-0.04-0.01c0.02,0.06,0.1,0.05,0.18,0.04
						c-0.03,0.04-0.03,0.05,0.03,0.07c-0.02,0.01-0.05,0.03-0.06,0c0,0.02-0.02,0.13,0.04,0.13c-0.02,0.01,0,0.03,0,0.04
						c0,0.05-0.01,0.05,0,0.1l0.01-0.01c0.08,0.02,0.02,0.04,0.03,0.08l-0.01,0c-0.06,0.09,0.03,0.04-0.04,0.12l0.05,0
						c0.1,0.02-0.07,0.07-0.03,0.13l0.03-0.01c0.03,0.03-0.15,0.06-0.17,0.08c-0.01,0-0.01-0.01-0.02-0.02
						c-0.07,0.06,0.06,0.02,0.07,0.07c-0.04,0-0.08-0.03-0.09,0.01c-0.03,0.01,0.09,0.12,0.01,0.15c0.03,0,0.06-0.01,0.07,0.02
						c0,0.04-0.12,0.07-0.05,0.12c-0.01,0-0.02,0-0.02,0c0.01,0.03,0,0.1,0.04,0.13c-0.16-0.04,0,0.2-0.14,0.13l-0.03,0.08
						l-0.01-0.01c-0.04,0.04-0.02,0.08,0,0.11c-0.02,0.01-0.02-0.01-0.03-0.02c-0.07,0.05-0.07,0.05-0.05,0.16l-0.04-0.03
						c0.01,0.03-0.13,0.03-0.15,0.12c0,0-0.01-0.01-0.01-0.02c-0.03,0.11-0.23,0-0.16,0.17l-0.03,0.07
						c0.07-0.02,0.02,0.08,0.07,0.09c-0.03,0.03-0.1-0.01-0.07-0.04l0.01,0.01c-0.03-0.09-0.1,0-0.12-0.06
						c-0.13,0.05-0.27,0-0.38-0.02l0,0.08l-0.04-0.01c-0.01-0.02,0-0.06,0.03-0.05c-0.01-0.04-0.06,0.02-0.06,0.04
						c-0.05-0.05,0.05-0.07,0.03-0.08l-0.02,0l0,0.01c-0.03,0.02-0.04,0.05-0.07,0.03c-0.02-0.02,0.01-0.05,0-0.05
						c0,0,0-0.01-0.01-0.01l-0.05-0.03l-0.01,0.06c-0.04,0.01-0.05-0.03-0.05,0.04c0.01-0.1-0.17-0.15-0.17-0.2
						c-0.06,0.01-0.08-0.02-0.11-0.06c0,0.02-0.04,0.07-0.07,0.03c0.11-0.08-0.01-0.09,0.05-0.18c-0.03,0.06-0.08-0.08-0.13,0.01
						c-0.01-0.04,0.04-0.03,0.05-0.07c-0.09-0.04-0.06-0.16-0.12-0.24c-0.02,0.01-0.03,0.03-0.07,0.02l0.06-0.08
						c-0.02-0.01-0.1,0.02-0.06-0.03c-0.01,0.01-0.03,0.03-0.04,0.02c0.01-0.21-0.19-0.38-0.05-0.6c-0.03,0.03-0.04,0.01-0.04-0.01
						c-0.01,0.01-0.04,0-0.07,0.01l0.06-0.09c-0.07-0.01-0.01-0.09-0.07-0.1l0.01,0.03c-0.08-0.04-0.16,0.06-0.26,0.06
						c0.08,0.04-0.12,0.13,0.01,0.19c-0.02,0.02-0.03-0.01-0.05,0c0.04,0.01,0.05,0.04,0.04,0.08l-0.01,0
						c0.03,0.12,0,0.17,0.01,0.31l0.04-0.02c0,0.03-0.01,0.04-0.02,0.06c0.08,0.01-0.02-0.08,0.07-0.07
						c-0.09,0.06,0.06,0.19-0.04,0.25c0.01,0.04,0.05-0.03,0.06,0.01l-0.02,0.02l0.04,0c0.01,0.03-0.02,0.06-0.05,0.07
						c0-0.01-0.01-0.02-0.02-0.02c-0.02,0.05,0.05,0.1,0.05,0.11l0-0.05c0.07,0.1,0.12,0.26,0.24,0.32l0.01-0.02
						c0.09,0.05,0.02,0.07,0.1,0.14l-0.01,0c0.03,0,0.06,0.01,0.07,0.03c-0.04,0,0,0.07-0.05,0.07c0.1,0.04,0.06,0.01,0.17,0
						l-0.01,0.04c0.04-0.01,0.05-0.02,0.09,0c-0.05,0-0.01,0.07-0.07,0.07c0.04,0.13,0.18,0.03,0.16,0.15
						c0.09-0.06-0.05-0.1-0.02-0.1c0-0.04,0.07-0.04,0.1-0.02c0.03,0.02-0.01,0.14,0.07,0.18c-0.01,0-0.01,0-0.02,0
						c0.02,0.04,0.08-0.01,0.1,0.04c0.04-0.05,0.05,0.02,0.08-0.05c-0.03,0-0.05,0-0.08-0.01c0.05,0,0.11-0.08,0.17-0.02
						c-0.01,0.01-0.03,0.03-0.05,0.04c0.02,0.03,0.04-0.01,0.06,0.02c-0.02,0.08-0.1,0-0.17,0.04c0.02,0.04,0.11-0.03,0.06,0.05
						c0.06-0.1,0.09,0.04,0.17-0.04l-0.01,0.05c0.01-0.01,0.03-0.03,0.05-0.02l-0.04,0.06c0.06-0.05,0.1,0.06,0.16,0.02
						c-0.11,0.01-0.03-0.05-0.07-0.09c0.12-0.07,0.08,0.13,0.23,0.08c-0.02,0.01-0.08-0.02-0.05-0.04c0.03,0,0.07,0.01,0.09,0.04
						c0.1-0.03-0.03-0.04,0.01-0.08c0.05,0.05,0.04-0.03,0.07-0.06l0.02,0.05c0.11-0.01-0.01-0.1,0.09-0.1l-0.01,0.08l0.04-0.03
						l0.01,0.05c0.03-0.06,0.05-0.06,0.11-0.07c-0.03-0.02-0.04-0.08,0-0.1c0.04,0.01,0.01,0.05,0.06,0.01
						c0,0.03,0.01,0.07-0.04,0.05c0.01,0.02,0,0.03,0.01,0.05c0.05,0.01,0.08-0.04,0.1-0.06c-0.01,0-0.02,0.01-0.03,0.01l0.04-0.11
						c0.02,0,0.02,0.02,0.02,0.04c0.01-0.02,0.01-0.04,0.03-0.06c0.02,0.03,0.05,0.06,0.03,0.11l0.04-0.09
						c0.02,0.01,0.07,0,0.07,0.02c0.06-0.02,0.03-0.14,0.1-0.17c0-0.01,0-0.02,0-0.03c0.04-0.04,0.12-0.06,0.12-0.15l0.08,0
						c0.02-0.06-0.1,0-0.08-0.09c0.02-0.07,0.06,0.01,0.09,0c-0.01-0.05-0.05-0.13,0.03-0.16
						C287.71,436.91,287.69,436.92,287.69,436.94z M287.89,436.3c0.01,0.01,0.03,0.05,0,0.05
						C287.84,436.32,287.87,436.31,287.89,436.3z M287.8,435.32c0.02,0.01,0.01,0.02,0,0.04
						C287.79,435.34,287.79,435.33,287.8,435.32z M286.07,434.25L286.07,434.25C286.09,434.25,286.08,434.25,286.07,434.25z
						 M286.02,434.26c0,0.01,0,0.01,0.01,0.02c0-0.01,0-0.02,0.01-0.02C286.03,434.24,286.02,434.24,286.02,434.26z M286.15,437.29
						l0,0.01C286.13,437.31,286.14,437.3,286.15,437.29z"/>
					<path class="vase_flowers_light_1" d="M287.87,435.42c-0.01,0-0.02,0.01-0.03,0.01C287.86,435.43,287.87,435.43,287.87,435.42z"/>
					<polygon class="vase_flowers_light_1" points="287.47,437.31 287.46,437.31 287.47,437.32 					"/>
					<path class="vase_flowers_light_1" d="M286.77,433.76c0.01,0.01,0.01,0.02,0.02,0.03C286.79,433.78,286.79,433.77,286.77,433.76z"/>
					<path class="vase_flowers_light_1" d="M285.9,434.47l0.01-0.03c-0.01,0.01-0.02,0.01-0.03,0.01C285.89,434.45,285.9,434.46,285.9,434.47z"/>
					<path class="vase_flowers_light_1" d="M285.49,434.5c0,0.01-0.01,0.01,0,0.02l0.02,0.01C285.52,434.51,285.51,434.49,285.49,434.5z"/>
					<path class="vase_flowers_light_1" d="M285.76,434.38c-0.03-0.03-0.04,0-0.05,0.02l0,0C285.76,434.44,285.76,434.41,285.76,434.38z"/>
					<path class="vase_flowers_light_1" d="M285.71,434.4c0,0.01-0.01,0.01-0.01,0.02C285.72,434.44,285.71,434.42,285.71,434.4z"/>
					<path class="vase_flowers_light_1" d="M285.99,434.31c-0.01,0,0.03,0.04,0.01,0.03C286.02,434.39,286.01,434.26,285.99,434.31z"/>
					<polygon class="vase_flowers_light_1" points="285.65,434.3 285.69,434.33 285.67,434.29 					"/>
					<path class="vase_flowers_light_1" d="M285.81,434.2l-0.04,0.01c0.01,0.01,0.01,0.01,0,0.02C285.79,434.22,285.82,434.21,285.81,434.2z"/>
					<path class="vase_flowers_light_1" d="M285.77,434.23c-0.01,0.01-0.02,0.02-0.02,0.03C285.76,434.25,285.77,434.24,285.77,434.23z"/>
					<polygon class="vase_flowers_light_1" points="285.67,434.25 285.69,434.25 285.71,434.24 					"/>
					<path class="vase_flowers_light_1" d="M286.16,434l0.03-0.03c0-0.02-0.01-0.02-0.03-0.01C286.16,433.98,286.15,433.99,286.16,434z"/>
					<path class="vase_flowers_light_1" d="M285.99,433.93c0.02,0,0.02,0.01,0.03,0.03l-0.02-0.06L285.99,433.93z"/>
					<path class="vase_flowers_light_1" d="M286.11,433.86c0-0.02,0.05-0.07-0.01-0.05C286.1,433.83,286.06,433.86,286.11,433.86z"/>
					<polygon class="vase_flowers_light_1" points="286.78,433.95 286.77,433.94 286.74,434.04 					"/>
					<path class="vase_flowers_light_1" d="M287.43,434.11c-0.02-0.06-0.06,0.03-0.07-0.03c-0.03,0.01,0.01,0.05-0.01,0.05
						C287.39,434.15,287.39,434.17,287.43,434.11z"/>
					<path class="vase_flowers_light_1" d="M287.35,434.14c-0.01,0-0.01,0-0.02,0C287.34,434.14,287.34,434.14,287.35,434.14z"/>
					<polygon class="vase_flowers_light_1" points="285.41,435.81 285.43,435.78 285.39,435.8 					"/>
					<path class="vase_flowers_light_1" d="M285.33,435.75l0.06-0.01l-0.06-0.02C285.34,435.74,285.34,435.75,285.33,435.75z"/>
					<path class="vase_flowers_light_1" d="M288.03,436.22l-0.01-0.01c-0.02,0-0.02,0.01-0.03,0.03L288.03,436.22z"/>
					<polygon class="vase_flowers_light_1" points="287.85,436.69 287.86,436.69 287.8,436.68 					"/>
					<path class="vase_flowers_light_1" d="M287.73,437.12c0.01-0.01,0.01-0.04,0.02-0.05C287.74,437.1,287.67,437.08,287.73,437.12z"/>
				</g>
			</g>
		</g>
	</g>
</g>
<g>
	<g>
		<ellipse class="vase_flowers_light_3" cx="279" cy="401.48" rx="1.28" ry="1.82"/>
	</g>
	<g>
		<g>
			<g>
				<ellipse class="vase_flowers_light_3" cx="318.03" cy="465.73" rx="2.57" ry="3.64"/>
			</g>
			<g>
				<path class="vase_flowers_light_3" d="M317.99,490.93c0-1.99-1.14-3.61-2.54-3.61c-1.4,0-2.54,1.62-2.54,3.61"/>
			</g>
			<g>
				<path class="vase_flowers_light_3" d="M305.42,479.37c0,2.01,1.15,3.64,2.57,3.64c1.42,0,2.57-1.63,2.57-3.64s-1.15-3.64-2.57-3.64
					C306.57,475.73,305.42,477.36,305.42,479.37"/>
			</g>
			<g>
				<path class="vase_flowers_light_3" d="M363.1,490.29c0-2.01-1.15-3.64-2.57-3.64c-1.42,0-2.57,1.63-2.57,3.64"/>
			</g>
			<g>
				<ellipse class="vase_flowers_light_3" cx="357.97" cy="466.95" rx="2.57" ry="3.64"/>
			</g>
			<g>
				<ellipse class="vase_flowers_light_3" cx="361.95" cy="452.14" rx="2.57" ry="3.64"/>
			</g>
			<g>
				<ellipse class="vase_flowers_light_3" cx="338.78" cy="440.14" rx="2.57" ry="3.64"/>
			</g>
			<g>
				<ellipse class="vase_flowers_light_3" cx="318.18" cy="428.9" rx="2.57" ry="3.64"/>
			</g>
			<g>
				<ellipse class="vase_flowers_light_3" cx="359.39" cy="433.94" rx="2.57" ry="3.64"/>
			</g>
			<g>
				<ellipse class="vase_flowers_light_3" cx="332.73" cy="425.26" rx="2.57" ry="3.64"/>
			</g>
			<g>
				<ellipse class="vase_flowers_light_3" cx="334.32" cy="453.38" rx="2.57" ry="3.64"/>
			</g>
			<g>
				<ellipse class="vase_flowers_light_3" cx="336.89" cy="473.23" rx="2.57" ry="3.64"/>
			</g>
			<g>
				<ellipse class="vase_flowers_light_3" cx="325.06" cy="441.08" rx="2.57" ry="3.64"/>
			</g>
			<g>
				<ellipse class="vase_flowers_light_3" cx="326.04" cy="409.2" rx="2.57" ry="3.64"/>
			</g>
			<g>
				<ellipse class="vase_flowers_light_3" cx="357.97" cy="480.82" rx="1.28" ry="1.82"/>
			</g>
			<g>
				<ellipse class="vase_flowers_light_3" cx="365.79" cy="467.77" rx="1.28" ry="1.82"/>
			</g>
			<g>
				<ellipse class="vase_flowers_light_3" cx="325.06" cy="463.32" rx="1.28" ry="1.82"/>
			</g>
			<g>
				<ellipse class="vase_flowers_light_3" cx="317.99" cy="485.22" rx="1.27" ry="1.8"/>
			</g>
			<g>
				<ellipse class="vase_flowers_light_3" cx="314.18" cy="471.41" rx="1.28" ry="1.82"/>
			</g>
			<g>
				<ellipse class="vase_flowers_light_3" cx="322.72" cy="428.55" rx="1.28" ry="1.82"/>
			</g>
			<g>
				<ellipse class="vase_flowers_light_3" cx="331.25" cy="448.5" rx="1.28" ry="1.82"/>
			</g>
			<g>
				<ellipse class="vase_flowers_light_3" cx="335.29" cy="480.39" rx="1.28" ry="1.82"/>
			</g>
			<g>
				<ellipse class="vase_flowers_light_3" cx="323.02" cy="447.75" rx="1.28" ry="1.82"/>
			</g>
			<g>
				<ellipse class="vase_flowers_light_3" cx="324.3" cy="434.97" rx="1.28" ry="1.82"/>
			</g>
			<g>
				<ellipse class="vase_flowers_light_3" cx="332.99" cy="438.9" rx="1.28" ry="1.82"/>
			</g>
			<g>
				<ellipse class="vase_flowers_light_3" cx="363.36" cy="428.9" rx="1.28" ry="1.82"/>
			</g>
			<g>
				<ellipse class="vase_flowers_light_3" cx="357.97" cy="440.15" rx="1.28" ry="1.82"/>
			</g>
			<g>
				<ellipse class="vase_flowers_light_3" cx="314.34" cy="461.16" rx="1.28" ry="1.82"/>
			</g>
			<g>
				
					<ellipse transform="matrix(0.6167 -0.7872 0.7872 0.6167 -222.8477 443.4594)" class="vase_flowers_light_3" cx="343.95" cy="450.57" rx="2.57" ry="3.64"/>
			</g>
			<g>
				
					<ellipse transform="matrix(0.6167 -0.7872 0.7872 0.6167 -224.7699 452.2307)" class="vase_flowers_light_3" cx="352" cy="456.93" rx="2.54" ry="3.61"/>
			</g>
			<g>
				
					<ellipse transform="matrix(0.6167 -0.7872 0.7872 0.6167 -229.694 464.5607)" class="vase_flowers_light_3" cx="362.2" cy="468.15" rx="2.54" ry="3.61"/>
			</g>
			<g>
				
					<ellipse transform="matrix(0.6167 -0.7872 0.7872 0.6167 -226.4676 460.1402)" class="vase_flowers_light_3" cx="359.27" cy="462.62" rx="1.27" ry="1.8"/>
			</g>
			<g>
				
					<ellipse transform="matrix(0.1153 -0.9933 0.9933 0.1153 -157.8311 753.1443)" class="vase_flowers_light_3" cx="343.91" cy="465.18" rx="3.64" ry="2.57"/>
			</g>
			<g>
				
					<ellipse transform="matrix(0.1153 -0.9933 0.9933 0.1153 -169.0304 760.9338)" class="vase_flowers_light_3" cx="342.68" cy="475.36" rx="3.61" ry="2.54"/>
			</g>
			<g>
				
					<ellipse transform="matrix(0.1153 -0.9933 0.9933 0.1153 -179.0897 767.9948)" class="vase_flowers_light_3" cx="341.61" cy="484.54" rx="1.8" ry="1.27"/>
			</g>
			<g>
				<ellipse class="vase_flowers_light_3" cx="322.23" cy="479.7" rx="2.57" ry="3.64"/>
			</g>
			<g>
				<ellipse class="vase_flowers_light_3" cx="319.49" cy="476.09" rx="2.54" ry="3.61"/>
			</g>
			<g>
				<ellipse class="vase_flowers_light_3" cx="313.32" cy="445.28" rx="2.57" ry="3.64"/>
			</g>
			<g>
				<ellipse class="vase_flowers_light_3" cx="313.27" cy="455.53" rx="2.54" ry="3.61"/>
			</g>
			<g>
				<ellipse class="vase_flowers_light_3" cx="310.73" cy="470.48" rx="2.54" ry="3.61"/>
			</g>
			<g>
				<ellipse class="vase_flowers_light_3" cx="303.28" cy="458.92" rx="2.57" ry="3.64"/>
			</g>
			<g>
				<ellipse class="vase_flowers_light_3" cx="300.06" cy="448.92" rx="2.57" ry="3.64"/>
			</g>
			<g>
				<ellipse class="vase_flowers_light_3" cx="292.13" cy="447.32" rx="2.57" ry="3.64"/>
			</g>
			<g>
				<ellipse class="vase_flowers_light_3" cx="289.57" cy="437.5" rx="2.57" ry="3.64"/>
			</g>
			<g>
				<ellipse class="vase_flowers_light_3" cx="355.83" cy="469.84" rx="2.57" ry="3.64"/>
			</g>
			<g>
				<ellipse class="vase_flowers_light_3" cx="353.26" cy="446.5" rx="2.57" ry="3.64"/>
			</g>
			<g>
				<ellipse class="vase_flowers_light_3" cx="357.24" cy="431.69" rx="2.57" ry="3.64"/>
			</g>
			<g>
				<ellipse class="vase_flowers_light_3" cx="334.07" cy="419.69" rx="2.57" ry="3.64"/>
			</g>
			<g>
				<ellipse class="vase_flowers_light_3" cx="316.04" cy="396.02" rx="2.57" ry="3.64"/>
			</g>
			<g>
				<ellipse class="vase_flowers_light_3" cx="313.47" cy="408.45" rx="2.57" ry="3.64"/>
			</g>
			<g>
				<ellipse class="vase_flowers_light_3" cx="371.04" cy="448.29" rx="2.57" ry="3.64"/>
			</g>
			<g>
				<ellipse class="vase_flowers_light_3" cx="380.74" cy="435.33" rx="2.57" ry="3.64"/>
			</g>
			<g>
				<ellipse class="vase_flowers_light_3" cx="354.68" cy="413.49" rx="2.57" ry="3.64"/>
			</g>
			<g>
				<ellipse class="vase_flowers_light_3" cx="328.02" cy="404.81" rx="2.57" ry="3.64"/>
			</g>
			<g>
				<ellipse class="vase_flowers_light_3" cx="274.65" cy="404.46" rx="2.57" ry="3.64"/>
			</g>
			<g>
				<ellipse class="vase_flowers_light_3" cx="329.61" cy="432.93" rx="2.57" ry="3.64"/>
			</g>
			<g>
				<ellipse class="vase_flowers_light_3" cx="332.18" cy="452.78" rx="2.57" ry="3.64"/>
			</g>
			<g>
				<ellipse class="vase_flowers_light_3" cx="320.35" cy="420.63" rx="2.57" ry="3.64"/>
			</g>
			<g>
				<ellipse class="vase_flowers_light_3" cx="260.08" cy="404.81" rx="2.57" ry="3.64"/>
			</g>
			<g>
				<ellipse class="vase_flowers_light_3" cx="368.48" cy="459.2" rx="2.57" ry="3.64"/>
			</g>
			<g>
				<ellipse class="vase_flowers_light_3" cx="380.74" cy="460.37" rx="2.57" ry="3.64"/>
			</g>
			<g>
				<ellipse class="vase_flowers_light_3" cx="361.07" cy="495.01" rx="2.57" ry="3.64"/>
			</g>
			<g>
				<ellipse class="vase_flowers_light_3" cx="369.71" cy="491.38" rx="2.57" ry="3.64"/>
			</g>
			<g>
				<ellipse class="vase_flowers_light_3" cx="367.14" cy="475.75" rx="2.57" ry="3.64"/>
			</g>
			<g>
				<ellipse class="vase_flowers_light_3" cx="347.14" cy="476.3" rx="2.57" ry="3.64"/>
			</g>
			<g>
				<ellipse class="vase_flowers_light_3" cx="321.32" cy="388.75" rx="2.57" ry="3.64"/>
			</g>
			<g>
				<ellipse class="vase_flowers_light_3" cx="378.18" cy="425.94" rx="2.57" ry="3.64"/>
			</g>
			<g>
				<ellipse class="vase_flowers_light_3" cx="279" cy="427.3" rx="2.57" ry="3.64"/>
			</g>
			<g>
				<ellipse class="vase_flowers_light_3" cx="267.7" cy="417.13" rx="2.57" ry="3.64"/>
			</g>
			<g>
				<ellipse class="vase_flowers_light_3" cx="269.52" cy="427.3" rx="2.57" ry="3.64"/>
			</g>
			<g>
				<ellipse class="vase_flowers_light_3" cx="353.26" cy="460.37" rx="1.28" ry="1.82"/>
			</g>
			<g>
				<ellipse class="vase_flowers_light_3" cx="361.07" cy="447.32" rx="1.28" ry="1.82"/>
			</g>
			<g>
				<ellipse class="vase_flowers_light_3" cx="320.35" cy="442.87" rx="1.28" ry="1.82"/>
			</g>
			<g>
				<ellipse class="vase_flowers_light_3" cx="351.98" cy="473.48" rx="1.28" ry="1.82"/>
			</g>
			<g>
				<ellipse class="vase_flowers_light_3" cx="379.46" cy="454.38" rx="1.28" ry="1.82"/>
			</g>
			<g>
				<ellipse class="vase_flowers_light_3" cx="376.9" cy="466.7" rx="1.28" ry="1.82"/>
			</g>
			<g>
				<ellipse class="vase_flowers_light_3" cx="368.48" cy="470.64" rx="1.28" ry="1.82"/>
			</g>
			<g>
				<ellipse class="vase_flowers_light_3" cx="359.93" cy="489.56" rx="1.28" ry="1.82"/>
			</g>
			<g>
				<ellipse class="vase_flowers_light_3" cx="374.33" cy="493.86" rx="1.28" ry="1.82"/>
			</g>
			<g>
				<ellipse class="vase_flowers_light_3" cx="317.03" cy="482.99" rx="1.28" ry="1.82"/>
			</g>
			<g>
				<ellipse class="vase_flowers_light_3" cx="313.27" cy="464.77" rx="1.27" ry="1.8"/>
			</g>
			<g>
				<ellipse class="vase_flowers_light_3" cx="309.47" cy="450.96" rx="1.28" ry="1.82"/>
			</g>
			<g>
				<ellipse class="vase_flowers_light_3" cx="298.77" cy="459.94" rx="1.28" ry="1.82"/>
			</g>
			<g>
				<ellipse class="vase_flowers_light_3" cx="297.49" cy="444.35" rx="1.28" ry="1.82"/>
			</g>
			<g>
				<ellipse class="vase_flowers_light_3" cx="274.65" cy="425.94" rx="1.28" ry="1.82"/>
			</g>
			<g>
				<ellipse class="vase_flowers_light_3" cx="318.01" cy="408.1" rx="1.28" ry="1.82"/>
			</g>
			<g>
				<ellipse class="vase_flowers_light_3" cx="326.54" cy="428.05" rx="1.28" ry="1.82"/>
			</g>
			<g>
				<ellipse class="vase_flowers_light_3" cx="330.58" cy="447.32" rx="1.28" ry="1.82"/>
			</g>
			<g>
				<ellipse class="vase_flowers_light_3" cx="330.58" cy="459.94" rx="1.28" ry="1.82"/>
			</g>
			<g>
				<ellipse class="vase_flowers_light_3" cx="318.31" cy="427.3" rx="1.28" ry="1.82"/>
			</g>
			<g>
				<ellipse class="vase_flowers_light_3" cx="319.59" cy="414.52" rx="1.28" ry="1.82"/>
			</g>
			<g>
				<ellipse class="vase_flowers_light_3" cx="330.76" cy="399.66" rx="1.28" ry="1.82"/>
			</g>
			<g>
				<ellipse class="vase_flowers_light_3" cx="328.28" cy="418.45" rx="1.28" ry="1.82"/>
			</g>
			<g>
				<ellipse class="vase_flowers_light_3" cx="358.65" cy="408.45" rx="1.28" ry="1.82"/>
			</g>
			<g>
				<ellipse class="vase_flowers_light_3" cx="353.26" cy="419.7" rx="1.28" ry="1.82"/>
			</g>
			<g>
				<ellipse class="vase_flowers_light_3" cx="375.08" cy="420.76" rx="1.28" ry="1.82"/>
			</g>
			<g>
				<ellipse class="vase_flowers_light_3" cx="380.74" cy="443.16" rx="1.28" ry="1.82"/>
			</g>
			<g>
				<ellipse class="vase_flowers_light_3" cx="309.62" cy="440.71" rx="1.28" ry="1.82"/>
			</g>
			<g>
				
					<ellipse transform="matrix(0.6167 -0.7872 0.7872 0.6167 -270.7997 420.5462)" class="vase_flowers_light_3" cx="296.45" cy="488.35" rx="2.54" ry="3.61"/>
			</g>
			<g>
				
					<ellipse transform="matrix(0.6167 -0.7872 0.7872 0.6167 -270.4258 393.0367)" class="vase_flowers_light_3" cx="268.39" cy="474.21" rx="2.57" ry="3.64"/>
			</g>
			<g>
				
					<ellipse transform="matrix(0.6167 -0.7872 0.7872 0.6167 -272.348 401.808)" class="vase_flowers_light_3" cx="276.43" cy="480.57" rx="2.54" ry="3.61"/>
			</g>
			<g>
				
					<ellipse transform="matrix(0.6167 -0.7872 0.7872 0.6167 -277.272 414.138)" class="vase_flowers_light_3" cx="286.63" cy="491.79" rx="2.54" ry="3.61"/>
			</g>
			<g>
				
					<ellipse transform="matrix(0.6167 -0.7872 0.7872 0.6167 -274.0457 409.7175)" class="vase_flowers_light_3" cx="283.71" cy="486.27" rx="1.27" ry="1.8"/>
			</g>
			<g>
				
					<ellipse transform="matrix(0.6167 -0.7872 0.7872 0.6167 -272.75 388.4498)" class="vase_flowers_light_3" cx="262.51" cy="474.31" rx="1.28" ry="1.82"/>
			</g>
			<g>
				
					<ellipse transform="matrix(0.4977 -0.8674 0.8674 0.4977 -277.7098 526.872)" class="vase_flowers_light_3" cx="316.01" cy="503.19" rx="2.54" ry="3.61"/>
			</g>
			<g>
				
					<ellipse transform="matrix(0.4977 -0.8674 0.8674 0.4977 -271.6447 495.9655)" class="vase_flowers_light_3" cx="292.36" cy="482.5" rx="2.57" ry="3.64"/>
			</g>
			<g>
				
					<ellipse transform="matrix(0.4977 -0.8674 0.8674 0.4977 -271.5587 506.2449)" class="vase_flowers_light_3" cx="301.28" cy="487.57" rx="2.54" ry="3.61"/>
			</g>
			<g>
				
					<ellipse transform="matrix(0.4977 -0.8674 0.8674 0.4977 -268.9486 521.2185)" class="vase_flowers_light_3" cx="315.51" cy="492.8" rx="2.54" ry="3.61"/>
			</g>
			<g>
				
					<ellipse transform="matrix(0.4977 -0.8674 0.8674 0.4977 -271.5212 515.5059)" class="vase_flowers_light_3" cx="309.29" cy="492.17" rx="1.27" ry="1.8"/>
			</g>
			<g>
				
					<ellipse transform="matrix(0.6167 -0.7872 0.7872 0.6167 -239.0137 408.5522)" class="vase_flowers_light_3" cx="300.03" cy="449.71" rx="2.54" ry="3.61"/>
			</g>
			<g>
				
					<ellipse transform="matrix(0.6167 -0.7872 0.7872 0.6167 -238.6398 381.0427)" class="vase_flowers_light_3" cx="271.96" cy="435.57" rx="2.57" ry="3.64"/>
			</g>
			<g>
				
					<ellipse transform="matrix(0.6167 -0.7872 0.7872 0.6167 -240.562 389.814)" class="vase_flowers_light_3" cx="280.01" cy="441.93" rx="2.54" ry="3.61"/>
			</g>
			<g>
				
					<ellipse transform="matrix(0.6167 -0.7872 0.7872 0.6167 -245.486 402.144)" class="vase_flowers_light_3" cx="290.21" cy="453.16" rx="2.54" ry="3.61"/>
			</g>
			<g>
				
					<ellipse transform="matrix(0.6167 -0.7872 0.7872 0.6167 -242.2596 397.7235)" class="vase_flowers_light_3" cx="287.28" cy="447.63" rx="1.27" ry="1.8"/>
			</g>
			<g>
				
					<ellipse transform="matrix(0.6167 -0.7872 0.7872 0.6167 -208.9292 459.4218)" class="vase_flowers_light_3" cx="367.3" cy="444.26" rx="2.54" ry="3.61"/>
			</g>
			<g>
				
					<ellipse transform="matrix(0.6167 -0.7872 0.7872 0.6167 -208.5553 431.9122)" class="vase_flowers_light_3" cx="339.24" cy="430.12" rx="2.57" ry="3.64"/>
			</g>
			<g>
				
					<ellipse transform="matrix(0.6167 -0.7872 0.7872 0.6167 -210.4775 440.6835)" class="vase_flowers_light_3" cx="347.29" cy="436.48" rx="2.54" ry="3.61"/>
			</g>
			<g>
				
					<ellipse transform="matrix(0.6167 -0.7872 0.7872 0.6167 -215.4015 453.0135)" class="vase_flowers_light_3" cx="357.49" cy="447.7" rx="2.54" ry="3.61"/>
			</g>
			<g>
				
					<ellipse transform="matrix(0.6167 -0.7872 0.7872 0.6167 -212.1751 448.5931)" class="vase_flowers_light_3" cx="354.56" cy="442.17" rx="1.27" ry="1.8"/>
			</g>
			<g>
				
					<ellipse transform="matrix(0.8093 -0.5874 0.5874 0.8093 -226.0179 309.7179)" class="vase_flowers_light_3" cx="363.97" cy="502.94" rx="3.61" ry="2.54"/>
			</g>
			<g>
				
					<ellipse transform="matrix(0.8093 -0.5874 0.5874 0.8093 -208.3875 317.8286)" class="vase_flowers_light_3" cx="385.28" cy="479.84" rx="3.64" ry="2.57"/>
			</g>
			<g>
				
					<ellipse transform="matrix(0.8093 -0.5874 0.5874 0.8093 -213.4931 314.08)" class="vase_flowers_light_3" cx="376.95" cy="485.83" rx="3.61" ry="2.54"/>
			</g>
			<g>
				
					<ellipse transform="matrix(0.8093 -0.5874 0.5874 0.8093 -220.0345 307.3779)" class="vase_flowers_light_3" cx="363.36" cy="492.55" rx="3.61" ry="2.54"/>
			</g>
			<g>
				
					<ellipse transform="matrix(0.8093 -0.5874 0.5874 0.8093 -218.1073 310.7227)" class="vase_flowers_light_3" cx="369.47" cy="491.26" rx="1.8" ry="1.27"/>
			</g>
			<g>
				<g>
					
						<ellipse transform="matrix(0.1153 -0.9933 0.9933 0.1153 -170.5088 760.6419)" class="vase_flowers_light_3" cx="341.78" cy="476.05" rx="3.61" ry="2.54"/>
				</g>
				<g>
					
						<ellipse transform="matrix(0.1153 -0.9933 0.9933 0.1153 -141.6853 730.3727)" class="vase_flowers_light_3" cx="339.19" cy="444.73" rx="3.64" ry="2.57"/>
				</g>
				<g>
					
						<ellipse transform="matrix(0.1153 -0.9933 0.9933 0.1153 -152.8847 738.1622)" class="vase_flowers_light_3" cx="337.97" cy="454.91" rx="3.61" ry="2.54"/>
				</g>
				<g>
					
						<ellipse transform="matrix(0.1153 -0.9933 0.9933 0.1153 -171.104 746.8175)" class="vase_flowers_light_3" cx="333.72" cy="469.47" rx="3.61" ry="2.54"/>
				</g>
				<g>
					
						<ellipse transform="matrix(0.1153 -0.9933 0.9933 0.1153 -162.944 745.2232)" class="vase_flowers_light_3" cx="336.9" cy="464.09" rx="1.8" ry="1.27"/>
				</g>
			</g>
			<g>
				<g>
					
						<ellipse transform="matrix(0.1153 -0.9933 0.9933 0.1153 -180.3374 684.3785)" class="vase_flowers_light_3" cx="294.05" cy="443.43" rx="3.61" ry="2.54"/>
				</g>
				<g>
					
						<ellipse transform="matrix(0.1153 -0.9933 0.9933 0.1153 -151.5139 654.1093)" class="vase_flowers_light_3" cx="291.47" cy="412.12" rx="3.64" ry="2.57"/>
				</g>
				<g>
					
						<ellipse transform="matrix(0.1153 -0.9933 0.9933 0.1153 -162.7133 661.8987)" class="vase_flowers_light_3" cx="290.24" cy="422.3" rx="3.61" ry="2.54"/>
				</g>
				<g>
					
						<ellipse transform="matrix(0.1153 -0.9933 0.9933 0.1153 -180.9325 670.554)" class="vase_flowers_light_3" cx="285.99" cy="436.85" rx="3.61" ry="2.54"/>
				</g>
				<g>
					
						<ellipse transform="matrix(0.1153 -0.9933 0.9933 0.1153 -172.7726 668.9597)" class="vase_flowers_light_3" cx="289.17" cy="431.48" rx="1.8" ry="1.27"/>
				</g>
			</g>
			<g>
				<g>
					
						<ellipse transform="matrix(0.8861 -0.4635 0.4635 0.8861 -165.038 230.6906)" class="vase_flowers_light_3" cx="386.84" cy="451.13" rx="2.54" ry="3.61"/>
				</g>
				<g>
					
						<ellipse transform="matrix(0.8861 -0.4635 0.4635 0.8861 -155.961 218.7513)" class="vase_flowers_light_3" cx="367.09" cy="426.69" rx="2.57" ry="3.64"/>
				</g>
				<g>
					
						<ellipse transform="matrix(0.8861 -0.4635 0.4635 0.8861 -159.6456 221.9739)" class="vase_flowers_light_3" cx="371.8" cy="435.8" rx="2.54" ry="3.61"/>
				</g>
				<g>
					
						<ellipse transform="matrix(0.8861 -0.4635 0.4635 0.8861 -165.7992 225.7841)" class="vase_flowers_light_3" cx="376.48" cy="450.22" rx="2.54" ry="3.61"/>
				</g>
				<g>
					
						<ellipse transform="matrix(0.8861 -0.4635 0.4635 0.8861 -162.9525 224.8915)" class="vase_flowers_light_3" cx="376.08" cy="443.99" rx="1.27" ry="1.8"/>
				</g>
			</g>
		</g>
		<g>
			<g>
				
					<ellipse transform="matrix(0.7148 -0.6993 0.6993 0.7148 -191.8916 304.4322)" class="vase_flowers_light_3" cx="277.32" cy="387.5" rx="3.61" ry="2.54"/>
			</g>
			<g>
				
					<ellipse transform="matrix(0.7148 -0.6993 0.6993 0.7148 -215.0941 299.4542)" class="vase_flowers_light_3" cx="259.62" cy="413.46" rx="3.64" ry="2.57"/>
			</g>
			<g>
				<path class="vase_flowers_light_3" d="M269.56,403.79c-0.98-1-2.93-0.69-4.36,0.7c-1.42,1.39-1.78,3.34-0.8,4.34s2.93,0.69,4.36-0.7"/>
			</g>
			<g>
				
					<ellipse transform="matrix(0.7148 -0.6993 0.6993 0.7148 -198.4081 308.8201)" class="vase_flowers_light_3" cx="279.44" cy="397.68" rx="3.61" ry="2.54"/>
			</g>
			<g>
				
					<ellipse transform="matrix(0.7148 -0.6993 0.6993 0.7148 -201.5999 305.3423)" class="vase_flowers_light_3" cx="273.58" cy="399.86" rx="1.8" ry="1.27"/>
			</g>
		</g>
	</g>
</g>
</svg>
