<?xml version="1.0" encoding="utf-8"?>
<!-- Generator: Adobe Illustrator 26.0.3, SVG Export Plug-In . SVG Version: 6.00 Build 0)  -->
<svg version="1.1" id="banister_x5F_base" xmlns="http://www.w3.org/2000/svg" xmlns:xlink="http://www.w3.org/1999/xlink" x="0px"
	 y="0px" viewBox="0 0 595.28 841.89" style="enable-background:new 0 0 595.28 841.89;" xml:space="preserve">
<style type="text/css">
	.banister_base_0{fill:#74A06A;}
</style>
<path class="banister_base_0" d="M579.57,412.8c-40.07-1.74-64.72,3.23-64.72,3.23l-1-0.01c-4.61,1.2-8.59,2.39-12.01,3.54
	c-28.27,9.52-18.02,15.45-18.02,15.45s-36.49,7.95-41.21,40.1c0,20.86,0,25.08,0,25.08s2.48,3.23,2.73,13.41s12.91,28.8,12.91,28.8
	l-7.2,18.37c0,0,1.71,17.92,3.24,24.08c1.89,7.62,10.88,22.32,10.88,22.32v58.73h-0.18v131.85h0.18h51.27h63.23L579.57,412.8z"/>
</svg>
