<?xml version="1.0" encoding="utf-8"?>
<!-- Generator: Adobe Illustrator 26.0.3, SVG Export Plug-In . SVG Version: 6.00 Build 0)  -->
<svg version="1.1" id="baseboards_x5F_base" xmlns="http://www.w3.org/2000/svg" xmlns:xlink="http://www.w3.org/1999/xlink"
	 x="0px" y="0px" viewBox="0 0 595.28 841.89" style="enable-background:new 0 0 595.28 841.89;" xml:space="preserve">
<style type="text/css">
	.baseboards_base_0{fill:#74A06A;}
</style>
<g>
	<path class="baseboards_base_0" d="M579.25,675.33l0.38,0.04V644.8l0.15,0.01l-0.15-4.23l-307.21-19.52l-22.84,0.91v0.38l-1.62,0.09v25.38
		l-3.81,0.21v62.57l3.81-0.21v28.22l21.87-2.87l155.49,61.3l0.58,0.23l42.27-0.14l21.83,0.05l-0.32-0.12l12.98-0.04h3.36l-0.03-0.01
		l38.23-0.13c2.32-0.08,4.64-0.15,6.96-0.23l0.17,0.06l22.46-0.06l6,0.06V682.1l-0.57-0.07L579.25,675.33z"/>
</g>
<g>
	<polygon class="baseboards_base_0" points="579.64,129.94 579.64,99.51 579.79,99.38 579.64,95.16 322.25,325.95 271.08,371.04 249.59,371.9 
		249.59,373.76 250.44,373.72 250.44,393.37 248.52,393.43 247.45,396.1 272.43,395.07 579.65,134.08 579.51,130.05 	"/>
</g>
</svg>
