<?xml version="1.0" encoding="utf-8"?>
<!-- Generator: Adobe Illustrator 26.0.3, SVG Export Plug-In . SVG Version: 6.00 Build 0)  -->
<svg version="1.1" id="chandelier_x5F_lights"
	 x="0px" y="0px" viewBox="0 0 595.28 841.89" style="enable-background:new 0 0 595.28 841.89;" xml:space="preserve">
<style type="text/css">
	.chandelier_lights_0{fill:#E5F3ED;}
</style>
<g>
	<g>
		<path class="chandelier_lights_0" d="M256.74,293.09c-21.02,0-20.69,10.59-20.69,10.59l4.47,4.8c0,0-9.27,16.39,16.22,25.66
			c25.49-9.27,16.22-25.66,16.22-25.66l4.47-4.8C277.42,303.68,277.76,293.09,256.74,293.09z"/>
	</g>
	<g>
		<path class="chandelier_lights_0" d="M284.37,328.01c-21.02,0-20.69,10.59-20.69,10.59l4.47,4.8c0,0-9.27,16.39,16.22,25.66
			c25.49-9.27,16.22-25.66,16.22-25.66l4.47-4.8C305.06,338.61,305.39,328.01,284.37,328.01z"/>
	</g>
	<g>
		<path class="chandelier_lights_0" d="M161.72,282.59c-21.02,0-20.69,10.59-20.69,10.59l4.47,4.8c0,0-9.27,16.39,16.22,25.66
			c25.49-9.27,16.22-25.66,16.22-25.66l4.47-4.8C182.41,293.18,182.74,282.59,161.72,282.59z"/>
	</g>
	<g>
		<path class="chandelier_lights_0" d="M117.87,314.99c-21.02,0-20.69,10.59-20.69,10.59l4.47,4.8c0,0-9.27,16.39,16.22,25.66
			c25.49-9.27,16.22-25.66,16.22-25.66l4.47-4.8C138.55,325.59,138.89,314.99,117.87,314.99z"/>
	</g>
</g>
</svg>
