<?xml version="1.0" encoding="utf-8"?>
<!-- Generator: Adobe Illustrator 26.0.3, SVG Export Plug-In . SVG Version: 6.00 Build 0)  -->
<svg version="1.1" id="chandelier_x5F_base" xmlns="http://www.w3.org/2000/svg" xmlns:xlink="http://www.w3.org/1999/xlink"
	 x="0px" y="0px" viewBox="0 0 595.28 841.89" style="enable-background:new 0 0 595.28 841.89;" xml:space="preserve">
<style type="text/css">
	.chandelier_base_0{fill:#E5DB8B;}
</style>
<g>
	<path class="chandelier_base_0" d="M284.37,388.51l2.32-0.99l0.66-17.54h-1.66l-0.18-1.54l7.23-3.1c-8.01-10.44-18.23-1.14-17.91-0.91
		c0.32,0.23,6.89,3.81,6.89,3.81v1.57l-1.66,0.17v1.16l-19.37-1.16l-0.66-8.77l-1.66-0.66l0.17-4.47h1.99l0.33-20.07l-2.98-0.95
		l-0.19-2.09l7.7-2.94c-3.92-15.79-22.6-4.37-20.5-2.47s10.03,5.48,10.03,5.48l-0.68,1.69l-2.32-0.5V336l-0.99,3.68l-6.95,2.65
		l-2.98-1.32l-4.47-6.79l-0.99-10.18c-0.74-18.62-18.12-36.25-18.12-36.25l0.25-14.4l3.02-4.47v-11.17l-1.53-4.97l-0.5-3.72h2.02
		v-5.21v-5.21c0-4.22-1.78-6.61-4.01-8.69c-1.14-1.06-2.3-1.97-3.47-2.73h2.73l-0.5-27.81l-0.99-32.52l1.74-3.48l-1.74-4.47
		l-0.74-8.44l2.23-3.48l-0.99-11.92l3.23-0.25l-0.25-4.47l-2.48-1.99v3.72l-1.49,0.25l-1.49,4.97h-1.99l1.99-8.69
		c4.97-3.65,7.29-7.32,7.99-10.78l0.95-0.39l3.48,0.5l5.46-2.23v-4.97l19.12-5.96l1.99,2.48l18.37-6.21l-7.7-17.46l-4.22,1.57
		l-6.7-18.12l-14.4-30.2h-15.48h-32.11h-33.85l-6.21,2.64v-2.64H127.8v7.11l11.67,16.39h4.47L155.36,78l-4.72,2.48l1.74,9.19
		l9.93,4.72h2.73l12.91,18.12h-3.72l9.68,15.89l5.21-0.99l3.23,2.98l2.48-1.99l0.64-0.26c0.38,0.33,0.61,0.51,0.61,0.51l-5.71,3.23
		l-0.99,5.46v3.72l1.49,16.63l-1.49,1.99l1.24,2.98l-1.24,64.55h0.34c-1.33,0.85-2.45,1.79-3.32,2.73c-2.44,2.67-2.48,6.7-2.48,6.7
		c-0.25,2,1.46,1.24,1.46,1.24v5.46v2.48c0,0,1.77,4.97,0,5.71s0,4.47,0,4.47s2.51,3.48,0,4.97c-2.51,1.49,0,6.95,0,6.95h2.51
		l-0.99,41.71l-2.98,12.17v4.72v11.42l-1.49-3.39c0,0-2.98-7.45-4.97-8.11c-1.99-0.66-4.63,6.95-4.63,6.95h-3.14l-5.13-3.14
		l0.66-5.46h-1.66l0.69-2.35l6.59-2.71c2.32-8.37-15.89-8.51-19.86-6.85s2.34,6.85,2.34,6.85l4.61,1.75l0.33,2.65l-2.65,1.66
		l-0.5,19.2l3.31,0.91l0.17,4.88c-11.42-14.24-16.34,5.63-16.34,5.63c-5.08-2.65-4.19,2.48-4.19,2.48l-15.89-1.32v-1.32l-2.15-0.66
		l1.32-1.32c4.3,0.17,6.33-3.48,6.33-3.48c-14.69-17.88-21.07-1.98-20.78-0.58s8.66,3.56,8.66,3.56l-1.66,0.99v19.2l2.15,2.48h4.14
		l1.16-2.15l22.68,1.49v3.14c1.49,13.74,12.91,10.26,12.91,10.26s-0.17,19.03,0.99,22.18c1.16,3.14,4.3-0.99,4.3-0.99l1.32-9.43
		l6.12-6.46l0.33,12.58l13.88,5.96l0.97,6.79h5.51l2.15-2.91h3.31l2.15,3.24l2.65,0.82l2.15,2.99l4.97,2.32l3.48-2.15l2.48-4.71
		l5.46-0.75l2.04-4.47c0,0,3.59-2.98,3.75-1.16s6.29,3.14,6.29,3.14s3.31,4.3,5.3,2.98c1.99-1.32-1.33-5.13-1.33-5.13
		c7.28-1.16,1.17-18.87,2.82-18.21s6.29-3.97,6.29-3.97c2.15,4.14,6.62,6.97,6.62,6.97c2.98,8.46,4.96-0.01,4.96-0.01
		c4.63,0.5,6.13-11.59,6.13-11.59l16.88,0.66l0.5,5.46l1.99,3.31h5.96l-0.33-4.47h-2.65v-2.65V388.51z M232.41,333.39l-8.52,12.5
		l0.99-6.21v-1.74c2.98-5.71,0-7.45,0-7.45l-1.24-25.08c0.18,0.09,0.36,0.2,0.54,0.31c0.4,0.26,0.99,0.69,1.66,1.37
		c6.26,6.62,7.48,25.64,7.48,25.64L232.41,333.39z M219.91,337.94l0.99,7.94h-3.06l-0.66-0.05l-1.49-25.77v-1.49
		c4.72-1.74,5.46,11.92,5.46,11.92C215.44,332.23,219.91,337.94,219.91,337.94z M197.8,224.05c-0.96,0.17-1.89,0.4-2.78,0.69
		C195.59,224.33,196.59,224.12,197.8,224.05z M209.23,225.15l-0.74-24.75l3.72,1.49l0.74,25.16
		C211.72,226.27,210.48,225.64,209.23,225.15z M192.38,201.39l3.2,2.73c0,0-1.67,17.81-1.32,20.86c-1.11,0.39-2.15,0.86-3.11,1.38
		L192.38,201.39z"/>
</g>
</svg>
