<?xml version="1.0" encoding="utf-8"?>
<!-- Generator: Adobe Illustrator 26.0.3, SVG Export Plug-In . SVG Version: 6.00 Build 0)  -->
<svg version="1.1" id="crown_x5F_moulding_x5F_base"
	 xmlns="http://www.w3.org/2000/svg" xmlns:xlink="http://www.w3.org/1999/xlink" x="0px" y="0px" viewBox="0 0 595.28 841.89"
	 style="enable-background:new 0 0 595.28 841.89;" xml:space="preserve">
<style type="text/css">
	.crown_moulding_base_0{fill:#BF8864;}
	.crown_moulding_base_1{fill:#540C37;}
</style>
<g>
	<polygon class="crown_moulding_base_0" points="15.64,36.88 503.44,36.54 273.29,292.51 15.64,224.98 	"/>
	<g>
		<g>
			<g>
				<g>
					<path class="crown_moulding_base_1" d="M16.3,36.88c-0.09-0.68-0.28-0.29-0.24,1.57l0.33,1.33L16.3,36.88z"/>
					<path class="crown_moulding_base_1" d="M15.69,49.43c0.16,2.19,0.44,4.73,0.75,3.3c-0.32-2.17-0.19-2.7-0.56-5.04c-0.04-1.87,0.11-3.26,0.23-2.94
						c-0.08-0.66,0.07-2.9-0.14-3.91c-0.26,2.43-0.27,5.51-0.06,8.72C15.84,50.26,15.75,49.59,15.69,49.43z"/>
					<path class="crown_moulding_base_1" d="M22.19,227.18l-1.13-0.34C21.37,226.94,21.76,227.06,22.19,227.18z"/>
					<path class="crown_moulding_base_1" d="M131.49,256.01c-0.83-0.21-1.19-0.27-1.24-0.25C131.03,255.94,131.67,256.09,131.49,256.01z"/>
					<path class="crown_moulding_base_1" d="M150.07,261.26c-0.4-0.11-0.73-0.21-1.09-0.31C149.38,261.09,149.8,261.21,150.07,261.26z"/>
					<path class="crown_moulding_base_1" d="M22.19,227.18l2.89,0.87C25.32,227.99,23.61,227.57,22.19,227.18z"/>
					<path class="crown_moulding_base_1" d="M16.49,74.59c-0.02-0.63-0.05-1.16-0.09-1.64c0.01,0.52,0.02,1.02,0.03,1.54
						C16.45,74.52,16.47,74.55,16.49,74.59z"/>
					<path class="crown_moulding_base_1" d="M14.91,182.04l0-0.92c-0.04-0.27-0.08-0.52-0.13-0.76L14.91,182.04z"/>
					<path class="crown_moulding_base_1" d="M14.85,143.8c-0.01,0.86,0.27,1.17,0.39,1.5c-0.12-0.49-0.17-1.13-0.19-1.89
						C15,143.4,14.94,143.51,14.85,143.8z"/>
					<path class="crown_moulding_base_1" d="M15.35,83.16l-0.04-1.08C15.32,82.37,15.34,82.84,15.35,83.16z"/>
					<path class="crown_moulding_base_1" d="M14.84,209.42c-0.04,0.06-0.08,0.2-0.1,0.35C14.78,209.77,14.81,209.63,14.84,209.42z"/>
					<path class="crown_moulding_base_1" d="M59.97,38.17c0.03-0.02-0.01-0.03,0-0.05C59.74,38.15,59.67,38.17,59.97,38.17z"/>
					<path class="crown_moulding_base_1" d="M15.64,36.81l0.61-0.02c0.07-0.05,0.13-0.11,0.13-0.16L15.64,36.81z"/>
					<path class="crown_moulding_base_1" d="M184.14,270.56c-0.07-0.02-0.09-0.03-0.15-0.04C183.08,270.31,183.59,270.44,184.14,270.56z"/>
					<path class="crown_moulding_base_1" d="M429.57,120.44c-2.64,2.56,3.76-4.66-0.15-0.74C429.85,119.39,426.39,123.73,429.57,120.44z"/>
					<path class="crown_moulding_base_1" d="M16.45,75.58c0,0.52,0,1.04,0,1.57C16.46,76.44,16.46,75.96,16.45,75.58z"/>
					<path class="crown_moulding_base_1" d="M429.42,119.7L429.42,119.7l-0.4,0.41C429.18,119.94,429.28,119.85,429.42,119.7z"/>
					<path class="crown_moulding_base_1" d="M262.91,291.03c-0.15-0.09-0.45-0.21-0.77-0.33C262.15,290.74,262.33,290.82,262.91,291.03z"/>
					<path class="crown_moulding_base_1" d="M204.36,275.27l1.44,0.42C205.23,275.51,204.77,275.38,204.36,275.27z"/>
					<path class="crown_moulding_base_1" d="M287.97,277.39c0.56-0.59,0.78-0.77,1.49-1.63c-0.08,0.07-0.15,0.14-0.25,0.23
						C288.97,276.32,288.62,276.73,287.97,277.39z"/>
					<path class="crown_moulding_base_1" d="M309.87,253.02c-0.13,0.12-0.3,0.27-0.45,0.41c-0.21,0.24-0.46,0.53-0.68,0.78L309.87,253.02z"/>
					<path class="crown_moulding_base_1" d="M159.54,37.96c-0.72-0.08-1.16-0.17-1.51-0.25C158.53,37.91,153.72,37.99,159.54,37.96z"/>
					<path class="crown_moulding_base_1" d="M16.33,74.61c0.07,0.19,0.11,0.47,0.12,0.97c-0.01-0.38-0.01-0.74-0.02-1.09
						C16.39,74.4,16.36,74.38,16.33,74.61z"/>
					<path class="crown_moulding_base_1" d="M287.21,274.91l3.51-3.84C289.74,272.15,288.46,273.54,287.21,274.91z"/>
					<path class="crown_moulding_base_1" d="M394.6,37.76l-1.19,0.03C393.87,37.8,394.29,37.79,394.6,37.76z"/>
					<path class="crown_moulding_base_1" d="M301.02,259.56c0.69-0.62,1.4-1.32,2.1-2.05c0.13-0.17,0.28-0.37,0.35-0.5L301.02,259.56z"/>
					<path class="crown_moulding_base_1" d="M158.02,37.71c0.01,0,0.01,0,0.01,0S158.03,37.71,158.02,37.71z"/>
					<path class="crown_moulding_base_1" d="M123.73,38.4c4.96,0,2.33-0.36,3.38-0.58c5.92-0.11,2.74,0.27,4.76,0.46c3.7-0.1,6.53-0.44,9.29-0.43
						c0.21,0.06,0.74,0.08,0.11,0.16c3.91-0.3,11.6-0.02,16.15-0.39c0.34,0.03,0.51,0.06,0.59,0.09c-0.74-0.18-0.85-0.37-0.7-0.51
						c2.22-0.01,4.13-0.24,4.96,0c-1.36-0.01-1.48,0.09-2.11,0.17l2.33-0.11c2.1,0.35-3.18,0.12-3.18,0.38
						c4.54-0.12,9.84-0.41,13.32-0.31c0.73,0.34-8.14,0.12-3.5,0.42l-5.39-0.13c4.12,0.53-3.27-0.04,0.51,0.54
						c7.09,0.09,7.93-0.18,15-0.08c1.59-0.19-0.53-0.28,1.07-0.47c10.05-0.35,7.91,0.85,15.3,0.39c1.91-0.23,2.65-0.66,7.92-0.43
						l-1.79,0.39c6.86,0.03,3.92-0.55,11.11-0.3c-1.28,0.15-5.39,0.13-4.36,0.18c4.66,0.3,3.29-0.22,6.87-0.22l0.74,0.34
						c7.31-0.12,15.36-0.25,23.45-0.38c-0.45,0.1-1.83,0.21,0.06,0.31c10.21-0.18,21.79,0.03,31.63,0.22l3.76-0.3
						c0.87,0,1.62,0.13,0.68,0.19c3.84,0.11,0.2-0.19,2.04-0.3c2.18-0.02,2.88,0.17,1.5,0.26c6.77-0.25,19.29-0.55,26.42-0.24
						l-1.39,0.09c5.56,0.12,6.27-0.61,11.42-0.34l-0.99,0.05c12.06,0.12,25.38-0.16,34.58,0.28c1.75-0.42,11.93,0.18,12.71-0.41
						c6.88,0.29,4.91,0.39,14.61,0.58c2.59,0.03,3.86-0.37,7.06-0.43l0.08,0.31l4.35-0.33l2.31,0.37l3-0.08
						c-1.2-0.02-2.54-0.14-2.36-0.23c2.35-0.07,5.2-0.02,7.49,0.07s4,0.22,4.06,0.3l11.1-0.27c-0.25,0.12-2.1,0.17-3.57,0.25
						c5.92-0.32,1.08,0.32,6.5,0.03c-0.73-0.07,0.39-0.18,0.52-0.25c2.71,0.18,8.86,0.18,13.42,0.1l-0.87,0.21
						c8.23,0.05,17.35-0.11,26.59-0.12c-3.31-0.1-2.55-0.47,0.16-0.5l1.08,0.33c1.75-0.2-2.83-0.12,0.76-0.37
						c3.45,0.04,2.32,0.37,0.34,0.48l4.2-0.12c0.25,0.1-0.74,0.15-0.99,0.27c1.72-0.2,7.24,0.32,9.73-0.03l0.24,0.1
						c9.23-0.06,13.42-0.09,20.94-0.14c0.15-0.28,3.09-0.22,5.33-0.45c2.2,0.03,2.41,0.07,3.09,0.11c-0.27,0.27-0.54,0.54-0.82,0.81
						l-0.09,0.09l-0.2,0.21l-0.54,0.58c-0.36,0.39-0.73,0.78-1.09,1.18c-1.47,1.58-2.97,3.22-4.49,4.93
						c-3.03,3.57-0.74,1.18-2.02,2.85c-0.42,0.08-4.85,5.05-2.68,2.36c-5.31,5.97-6.79,7.63-13.39,15.28
						c0.81-0.75,1.67-1.63,1.31-1.1c-1.2,1.39-2.87,3.03-2.79,2.75l0.3-0.38c-7.3,8.7-18.07,18.98-23.71,26.05l0.32-0.39l-6.06,7.15
						c-2.92,3.18,1.59-2.05-0.67,0.21c-6.44,7.8-10.72,11.84-16.08,18.22c-4.87,4.29-15.25,17.04-21.42,23.18l0.47-0.25
						c-1.37,1.79-1.89,1.95-3.03,3.16c0.26-0.08,1.75-1.71,0.89-0.6c-12.57,14.3-26.47,29.05-39.65,43.46
						c-4.81,5.28-2.02,3.63-8.36,10.04l1.46-2.12c-9.34,10.98-19.71,21.9-28.89,32.62c0.51-0.68,0.45-0.76,1.37-1.78
						c-1.09,1.03-2.93,3.07-4.49,4.88c-1.56,1.81-2.83,3.39-2.78,3.47c-1.49,1.62-0.47,0.26-1.45,1.2c-2.1,2.13-4.79,5.78-6.03,6.8
						c-0.21,0.17,0.5-0.68,0.86-1.1c-1.22,1.53-6.09,6.73-4.64,5.53c-3.64,3.85-6.68,7.61-9.63,10.64
						c-1.61,2.25-6.17,6.64-6.43,7.58c-0.08-0.58-6.48,6.66-8.56,9.29c0.65-0.92-2.05,2.07-1.31,0.97c-2.55,2.84-4.83,5.5-4.21,5.16
						c-2.01,1.91-3.85,3.99-5.53,5.96c-0.84,0.99-1.65,1.94-2.41,2.84c-0.39,0.44-0.76,0.88-1.12,1.29c-0.15,0.17-0.3,0.34-0.45,0.5
						l-0.17,0.18c-0.09-0.03-0.17-0.06-0.25-0.09c-0.03-0.01-0.02-0.01-0.07-0.03l-0.18-0.06c-0.12-0.04-0.24-0.08-0.36-0.12
						c-0.47-0.16-0.9-0.33-1.29-0.51c-11.04-2.64-21.24-5.15-31.14-7.63c0.47-0.34,10.93,2.82,10.62,2.25
						c-9.42-2.28-14.92-3.32-24.18-5.86c-2.39-0.69,1.42,0.17,2.25,0.31c-9.41-2.27-18.09-4.78-26.48-6.73
						c0.03-0.03,0.94,0.16,1.8,0.35c-1.65-0.42-3.8-1.06-3.67-0.82l1.61,0.37c2.55,0.97-6.68-1.11-7.01-1.03
						c2.93,0.16-8.19-2.3-3.58-1.86c-1.09-0.25-2.47-0.51-2.26-0.31c-1.59-0.46-2.08-0.67-0.42-0.39c-5.91-1.43-3.87-0.67-9.2-2.08
						c0.04-0.09,1.13,0.15,1.71,0.18c-2.75-0.52-5.5-1.04-9.98-2.3c0.29,0.01-0.22-0.2,1.13,0.15c-7.74-2-13.31-2.95-21.74-5.36
						c2.61,0.24-2.85-0.89-3.2-1.37l-4.59-1.09l1.78,0.65c-3.99-1.05-7.59-1.72-10.99-2.73l3.01,0.63l-7.5-1.89l4.2,1.25
						c-4.09-0.87,0.31,0.57-4.98-0.92c1.09,0.25-3.99-1.05-6.02-1.81l0.01,0c-2.01-0.4-4.07-0.81-7-1.68
						c-0.74-0.32,0.72-0.24,0.24-0.45c-2.03-0.21-9.38-2.37-11.93-2.69c0.84,0.14,0.94-0.04,0.68-0.15l-1.7-0.18
						c-1.83-0.56-2.09-0.67-1.75-0.74c-5.55-1.5,1.65,0.92-4.91-1.01c0.52,0.12,0.29,0.01,1.38,0.26
						c-6.61-1.84-12.86-3.2-18.92-4.92c-1.7-0.83,5.35,1.31,3.37,0.46c-8.81-2.24-18.32-4.34-26.8-6.65l1.57,0.46
						c-1.31,0.2-6.27-1.91-10.63-2.8c1.06,0.24,1.46,0.08,1.16,0.06c-5.8-1.61-11.94-3-20.81-5.15l1.13,0.15
						c-1.49-0.45-3.42-0.97-5.41-1.5c-1.82-0.49-3.7-0.99-5.31-1.42c0.01-0.39,0.01-0.71,0.02-1.02c-0.14-1.14-0.11-3.33-0.31-2
						c0.78-11.82-0.42-22.55,0.23-33.03c0,1.25,0.12,2.99,0.12,1.99l-0.13-8.93c-0.23,0.71-0.14,1.17-0.32,3.05
						c-0.14-1.13-0.24-3.65-0.24-5.87c0.15,4.02,0.37-0.03,0.5-1.77c-0.07,0.29-0.15-0.3-0.22-0.16c0.41-4.67-0.46-0.78-0.19-7.15
						l0.12,0.34c-0.06-2.38-0.22-4.58-0.19-7.15c0.27-1.07,0.12,2.54,0.34,2.7c-0.02-3.61-0.51-7.13-0.24-10.4
						c0.04,1.53,0.11,3.74,0.15,5.27c0.31-3.56,0.23-3.97,0.28-6.62l-0.01,0.26l0.14-6.11l-0.08,1.56c-0.7-4.52-0.13-9.2-0.58-15.29
						c0.43,5.92,0.25,0.98,0.55,1.43c0.08-1.55,0.18-3.92,0.26-3.25c-0.24-2.88,0.19-4.8-0.16-8.86c0.1-0.18,0.01-3.08,0.25-2.43
						c-0.08-3.74-0.17,0.88-0.29,0.57c-0.33-5.77,0.4-13.56-0.05-21.85c-0.19-7.15-0.52-8.48-0.68-15.11
						c0.16-2.24,0.36,1.83,0.36,1.83c0.14-3.61,0.12-6.33,0.01-9.74c0.09,0.69,0.16-0.02,0.27-1.06c-0.03-2.73-0.36-1.83-0.21-5.43
						c0.11,0.62,0.28,1.41,0.39,2.73c-0.12-3.22-0.24-6.4-0.36-9.74c0.17-0.88,0.26,2.01,0.37,3.19c-0.08-3.75-0.15-9.71-0.42-10.87
						l-0.1,2.4c-0.01-1.37,0.23-0.7,0.28,0.31c0.21,3.21-0.09,4.63-0.19,4.81l-0.06-2.37c-0.57,2.44,0.09,9.54,0.06,14.32
						l-0.42-1.99l0.35,4.9c-0.11,1.04-0.34,1.76-0.4-0.6c-0.21,3.43,0.15,3.03-0.08,5.98c-0.04,0.32-0.06,0.18-0.07-0.12l0.12,3.35
						c-0.09-0.66-0.29,0.56-0.23-1.5c-0.24,6.01,0.31,9.69,0,11.95l-0.03-0.5c0.14,8.34,0.31,0.81,0.66,7.06l-0.75,4.21l0.31,0.82
						c-0.01,0.86-0.03,2.56-0.16,2.25c0.21,3.2,0.13-0.55,0.33,1.31c-0.28,4.14,0.13,11.42-0.36,12.35
						c0.23,1.49,0.18-3.96,0.34,0.46c-0.52,1.26,0.09,5.11-0.15,8.89c-0.27-1.16-0.13-4.75-0.37-0.96c0.46,2.28-0.1,7.37-0.01,10.56
						c0.36,0.15,0.15,6.94,0.27,12.29c-0.12-0.34-0.2,10.08-0.33,15.06l-0.06-0.15c0.37,0.96,0.3,6.1,0.37,9.84
						c-0.22-0.15-0.31-0.82-0.4-2.85l0,3.52c0.12,0.83,0.18,1.93,0.22,4.21l-0.27-0.88c0.02,4.68,0.32,9.43,0.14,15.45
						c0.26,0.34,0.71-4.79,0.88,1.58c-0.14,0.24-0.38,0.47-0.43-1.2c0.02,0.55,0.11,1.95,0.06,3.05l-0.23-2.54
						c-0.1,2.74,0.19,1.43,0.17,3.63c-0.2-0.04-0.14,1.62-0.3,1.31c-0.02-0.56,0.08-1.91,0-2.75c-0.04,2.47-0.15,5.46-0.3,6.45
						c0.11-0.22,0.27,0,0.29,1.81c0.01,4.68-0.24,1.6-0.34,4.33c0.14,1.13-0.01,4.12,0.29,4.2c0,1.37-0.14,1.62-0.22,2.15
						c0.04,0.71,0.05,1.59,0.07,3.61c0.98,0.25,2.02,0.51,3,0.76c0.81,0.2,1.55,0.38,2.14,0.52c1.18,0.27,1.72,0.35,0.79-0.01
						l-0.6-0.18c0.11,0.03,0.25,0.06,0.39,0.09c-0.02,0,0,0-0.02,0l0.02,0c7.75,1.73,15.91,4.34,23.57,6.22L44.19,233
						c4.58,1.08,10.14,2.59,13.44,3.24c1.35,0.35,3.13,1.01,2.52,0.97c3.5,0.84,3.91,0.83,8.9,2.31c-3.54-0.75,1.17,0.46-3.61-0.82
						c4.5,1.27,5.48,1.69,10.4,2.7c-1.72-0.19,3.32,1.2,5.49,1.69l-3.12-1.01c2.42,0.6,4.53,1.17,6.67,1.76l-1.24,0.02
						c9.14,2.82,16.85,3.7,23.72,6.2c2.5,0.42-4.98-1.47-2.72-1.16c4.24,1.16,8.55,2.78,9.88,3.13c5.78,1.71,5.56,0.95,11.62,2.67
						c-0.75-0.32-1.41-0.82,3.18,0.27c4.25,1.16,5.11,1.85,2.39,1.24c-1.02-0.26-1.51-0.42-1.45-0.45c-1.39-0.32-3.2-0.74-1.55-0.18
						l0.58,0.03c2.08,0.67,7.94,2.19,6.52,2.02c3.24,0.73,1.42,0.17-0.94-0.51c5.42,1.6,8.53,2.24,14.12,3.82
						c-0.88-0.3-1.66-0.65-0.78-0.41c8.2,2.3,3.69,0.73,9.28,2.15c3.13,1.01-1.25,0.12,4.41,1.45c3.4,1.02,0.65,0.5-0.74,0.23
						c5.18,1.12,9.53,2.65,12.45,3.46l-2.72-0.61c1.63,0.37,2.95,0.72,4.29,1.07l-1.48-0.63c1.57,0.46,2.91,0.81,2.86,0.9
						c1.67,0.28-1.15-0.71,2.14-0.07c2.08,0.67,6.46,1.56,7.11,2.06c-6.61-1.84,0.65,0.5-4.98-0.93c1.09,0.25,2.42,0.6,3.99,1.05
						c0.23,0.1-0.24,0-0.68-0.09c6.28,1.94,3.01,0.42,9.6,2.15c-0.88-0.05,1.44,0.73,2.53,0.97c-2.65-0.7-1.19-0.62,1.27-0.11
						c4.19,1.24,4.62,1.1,6.82,1.7l-2.51-0.72c0.9,0.05,3.01,0.63,5.96,1.35c0.22,0.2-2.7-0.61-1.66-0.27
						c3.35,0.55,7.3,2.25,11.92,3.24c2.08,0.67,0.12,0.38,1.95,0.94c5.17,1.12,5.47,1.69,10.89,2.91c-1.49-0.64-1.77-0.65,2.07,0.12
						l-8.87-2.15l5.75,1.15c-2.66-0.7-5.66-1.33-7.25-1.79c2.75,0.52,2.46,0.5,1.23-0.02c3.55,1.3,7.28,1.69,11.43,3.03l-0.28,0.54
						c6.27,1.91,11.33,2.66,19.52,4.96l-2.62-0.79c1.16,0.06,5.09,1.3,7.77,1.91c-0.3,0.13,1.35,0.63,2.45,1.05
						c-0.1-0.18,6.02,1.59,6.86,1.41l1.8,0.61l0.9,0.3l0.48,0.16l0.72,0.22c0.26,0.07,0.52,0.14,0.7,0.19
						c0.68-0.76,1.3-1.45,1.85-2.07c0.43-0.5,0.81-0.96,1.17-1.38c0.71-0.86,1.28-1.61,1.86-2.35c1.15-1.49,2.3-2.99,4.48-5.36
						c-1.17,1.62,0.94-0.52-1.9,2.88c1.48-1.64,2.83-3.09,2.75-3.2c0.95-0.87,3.89-4.72,5.38-6.1c0.56-0.75,0.61-1.11,2.27-2.94
						c0.21-0.17,0.07,0.07,0.07,0.07c-0.07-0.07,2.49-2.97,0.88-1.51c5-4.64,12.65-14.14,17-18.18c3.18-3.61,7.01-7.95,9.9-11.23
						c-0.14,0.25,0.06,0.08-0.5,0.68c4.16-4.36,2.05-3.13,6.79-8.09c2.58-2.39-2.31,2.82-0.76,1.28c1.12-0.27,5.46-6.21,8.83-9.39
						l-0.72,0.86c2.52-2.47,5.57-6.56,9.45-10.81c0,0-0.14,0.25,0.05,0.09c2.39-3.15,7.29-8.77,10.93-12.95
						c-0.96,1.45-1.58,1.96-0.69,1.35c1.63-1.87-0.79,0.26,2.47-3.47c1.18-1.11,3.66-3.68,4.19-3.85l-3.12,3.49
						c1.87-1.54,4.04-4.51,5.73-6.3l-0.09,0.34c4.75-5.36,4.53-5.7,9.7-11.41l-0.62,0.51c2.52-3.39,2.52-2.48,5.11-5.79l1.14-0.68
						c1.79-2.13,6.22-7.49,9.5-11.24c-1.67,2.29-5.45,6.73-7.74,9.53c1.84-2.05,6.23-6.98,7.05-8.17c-0.71,0.85-1.58,1.95-2.35,2.73
						c2.03-2.72,4.89-6.13,8.56-10.2c-0.08,1.23,9.71-10.51,12.81-13.07c6.28-7.41,12.96-14.24,20.49-22.68
						c-3.12,2.58,2.19-2.47,1.28-2.36c1.73-1.98,2.41-2.72,2.6-2.87l5.61-5.69c1.4-1.29-1.57,1.95-1.31,1.86
						c3.89-4.26,1.81-1.63,4.48-4.35c-0.69,0.44,1.11-1.7,3.37-4.09l-3.3,3.25c5.15-6.21,5.04-4.84,10.23-11.09l-1.57,2.04
						c2.7-3.18,10.28-11.43,12.65-14.8c0.55-0.5,1.32-1.11,0.13,0.28c6.72-7.36,14.44-16.84,19.84-22.39l-0.39,0.66
						c1.21-1.41,1.95-2.59,3.62-4.22c-0.03,0.13-0.39,0.66,0.19,0.02c0.62-0.77,3.11-3.85,4.82-5.62l-1.28,1.68
						c6.64-7.09,9.67-11.36,15.04-17.49c0.08,0.21,1.87-1.57,4.52-4.38c-3.3-0.07-7.59-0.15-10.37-0.21l0.13-0.06
						c-11.31-0.05-19.22,0.38-29.7,0.56c-6.5-0.47-22.03-0.18-32.49-0.45c1.6,0.08-0.26,0.34-2.12,0.39
						c-2.45-0.09-6.78,0.31-6.39-0.09l0.87,0.01c-1.85-0.39-6.89-0.29-10.83-0.29l-0.65,0.53c-10.3-0.76-26.98,0.3-32.6-0.38
						c-2.48,0.13-5.56,0.13-8.02,0.27l0.13-0.28c-6.88-0.07-10.32-0.1-18.83-0.03l1.73-0.2c-4.8-0.01-6.06,0.82-10.49,0.84
						l-1.33-0.42c-8.37,0.01-16.85-0.35-25.12,0.04c0.14-0.06,0.38-0.18,1.74-0.2c-3.94-0.01-15.25-0.28-13.82,0.3
						c-0.1-0.38-8.64-0.03-13.16,0.14l0.7-0.28c-3.82,0.36-3.94,0.46-9.27,0.56c-1.26-0.04-1.11-0.22,0.57-0.15
						c-4.21-0.14-3.28,0.27-8.38,0.12l1.9-0.18c-4.33-0.02-3.99,0.08-6.37,0.29c-2.72,0.11-8.22-0.06-8.86-0.32
						c-0.58,0.15-2.96,0.36-5.51,0.29c-0.34-0.09,0.58-0.15,1.05-0.18c-7.24-0.18-10.77,0.33-15.75,0.06
						c-0.1-0.09-0.43-0.14-0.84-0.17c5.75,0,10.39,0.01,9.95,0.04c0-0.26-4.65-0.3-0.95-0.66c-3.73,0.2-10.11,0.62-14.64,0.5
						c-0.22-0.02-0.43-0.05-0.6-0.09l0.47-0.03c-1.05-0.02-1.98,0-2.86,0.04c-1.45-0.04-2.36-0.07-3.75-0.07
						c-0.54-0.21-5.33-0.11-7.65-0.12c0.19,0.28-2.84,0.24,0,0.47c-0.37-0.02,0.44-0.03,1.98-0.05c0.35-0.01,0.76-0.01,0.99-0.03
						c-0.04,0.01-0.1,0.02-0.16,0.02c1.52-0.01,3.51-0.01,5.76-0.02c-1.83,0.14-3.74,0.27-6.31,0.11c-1.19,0.18-2.5,0.37-3.23,0.46
						c-3.17-0.39-9.28-0.6-10.13-0.84c-7.07,0.16-16.67,0.12-21.12,0.65c-2.01,0.07-2.31-0.15-3.06-0.23
						c1.16-0.05,2.54-0.05,3.17-0.12c-4.02,0.14-11.92,0.06-12.88,0.43c-5.07-0.16,2.85-0.34-4.12-0.28l0.94-0.11
						c-13.7-0.58-22.28,0.96-37.47,0.21c1.05,0.05,1.58,0.07,1.79,0.13c-17.32-0.32-35.69,0.34-52.78-0.18
						c-4.86-0.1-5.38,0.13-8.35,0.31l-1.05-0.3l-5.07,0.35c-7.19,0.26-12.45-0.73-21.55-0.24l1.17,0.2
						c-3.27-0.04-10.35,0.13-9.81-0.11c-0.33,0.04-1.07,0.21-2.35,0.11l-0.1-0.16l-8.03,0.28c-6.22-0.11,0.97-0.63-8.11-0.65
						c-3.38,0.06-9.61,0.47-8.35,0.57c1.36,0.01,3.48,0.1,3.58,0.25l-3.09,0.08c-0.56,0.47-2.93,0.94,4.65,1.26l5.28-0.29l1.7,0.22
						l-4.45,0.02c2.52,0.21,4.12,0.02,5.91-0.11c0.42,0.12,1.17,0.2,2.21,0.25l5.19-0.45c0.63,0.18-2.33,0.36,1.15,0.46
						c2.43-0.21-2.33-0.41,1.69-0.55c2.53,0.21,1.79,0.38,4.75,0.2c0.42,0.12-0.21,0.2-1.39,0.25c2.64-0.15,6.99-0.07,8.35-0.31
						c2.63,0.26,8.91-0.07,8.65,0.37c0.83-0.11,4.65-0.35,7.07-0.37c-4.43,0.53,9.08,0.02,7.91,0.59
						c3.28-0.48,11.84-0.22,17.65-0.49c-0.32,0.04-0.96,0.11-1.47,0.09c3.27,0.04,4.22,0.18,6.32,0.27
						c0.42-0.39,5.51-0.49,8.25-0.73c4.01,0.38-2.43,0.46-1.17,0.82c-0.2-0.32,6.96-0.32,5.6-0.59c3.06,0.23,2.64,0.11,4.22,0.44
						c0.54-0.49,2.85-0.08,5.39-0.39c4.43,0.24,1.14,0.46,6.01,0.31C128.06,38.22,123.73,38.4,123.73,38.4z M239.58,37.47
						L239.58,37.47c-1,0.01-1.85,0.02-2.39,0.02C237.69,37.49,238.38,37.48,239.58,37.47z M249.32,37.46
						c-1.19,0-2.66-0.01-4.22-0.01c-0.34-0.1,0.03-0.2,1.01-0.19C245.57,37.33,247.87,37.38,249.32,37.46z M228.72,35.53
						c1.54-0.04,2.06,0.01,2.27,0.07c-0.73,0.01-1.58,0.02-2.7,0.04c-0.05,0.01-0.14,0.03-0.18,0.03
						C228.26,35.62,228.43,35.56,228.72,35.53z"/>
					<path class="crown_moulding_base_1" d="M225.95,35.9c-0.22,0.01-0.35,0.01-0.64,0.02c0.32,0.02,0.61,0.04,0.92,0.06
						c0.19-0.03,0.38-0.06,0.55-0.09C226.5,35.89,226.21,35.9,225.95,35.9z"/>
					<path class="crown_moulding_base_1" d="M20.87,226.78l0.2,0.06c-0.16-0.05-0.31-0.1-0.41-0.15C20.79,226.74,20.78,226.75,20.87,226.78z"/>
					<polygon class="crown_moulding_base_1" points="383.76,37.9 383.74,37.83 382.89,37.9 					"/>
					<path class="crown_moulding_base_1" d="M16.18,176.87c0.02-0.1,0.05-0.3,0.07-0.7C16.24,176.2,16.21,176.5,16.18,176.87z"/>
					<path class="crown_moulding_base_1" d="M16.25,153.71l0.1-3.28C16.3,151.85,16.27,152.88,16.25,153.71z"/>
					<path class="crown_moulding_base_1" d="M16.39,135.9c-0.05-0.23-0.09-0.29-0.12-0.35c0,0.01,0,0.02,0,0.03L16.39,135.9z"/>
					<path class="crown_moulding_base_1" d="M203.65,273.14c0.23,0.06,0.46,0.11,0.67,0.16C205.89,273.66,204.83,273.4,203.65,273.14z"/>
					<path class="crown_moulding_base_1" d="M121.97,252.41c0.88,0.18,1.74,0.37,2.65,0.56C123.18,252.57,122.05,252.27,121.97,252.41z"/>
					<path class="crown_moulding_base_1" d="M286.82,275.34c-0.01,0.01,0,0,0,0.01c0.13-0.15,0.25-0.28,0.39-0.43L286.82,275.34z"/>
					<path class="crown_moulding_base_1" d="M128.42,253.97c-1.44-0.43-2.65-0.74-3.79-1C125.81,253.3,127.21,253.7,128.42,253.97z"/>
					<path class="crown_moulding_base_1" d="M16.51,58.71l0.01-0.86c-0.02,0.01-0.03-0.04-0.05-0.1L16.51,58.71z"/>
					<path class="crown_moulding_base_1" d="M16.48,57.75l-0.03-0.95C16.45,57.24,16.45,57.62,16.48,57.75z"/>
					<path class="crown_moulding_base_1" d="M16.38,54.8l0.07,2.01C16.45,56.11,16.46,55.25,16.38,54.8z"/>
					<path class="crown_moulding_base_1" d="M16.38,82.29l0.1,0.27C16.47,82.41,16.43,82.32,16.38,82.29z"/>
					<path class="crown_moulding_base_1" d="M16.41,89.45c0.02-1.71,0.22-4.29,0.15-6.67l-0.08-0.22C16.64,83.68,16.24,87.83,16.41,89.45z"/>
					<path class="crown_moulding_base_1" d="M15.15,119.36l0.08-6c-0.11,1.05-0.25,2.43-0.28-0.3C14.63,120.62,15.2,111.49,15.15,119.36z"/>
					<path class="crown_moulding_base_1" d="M15,137.97c-0.05-3.23-0.16,0.04-0.22-0.13C14.88,139.88,14.9,140.38,15,137.97z"/>
					<path class="crown_moulding_base_1" d="M61.44,237.65l-0.38,0.17C63.47,238.41,61.11,237.72,61.44,237.65z"/>
					<polygon class="crown_moulding_base_1" points="86.65,242.89 84.35,242.12 83.17,242.06 					"/>
					<polygon class="crown_moulding_base_1" points="100.88,248.5 99.82,248.26 103.86,249.22 					"/>
					<path class="crown_moulding_base_1" d="M306.16,257.52l-0.74,0.35C304.34,259.16,304.37,259.66,306.16,257.52z"/>
					<path class="crown_moulding_base_1" d="M371.14,184.78c0.83-0.68,2.74-2.66,3.75-4.02C373.41,182.38,371.85,183.92,371.14,184.78z"/>
					<polygon class="crown_moulding_base_1" points="409.62,35.36 411.58,35.25 407.89,35.34 					"/>
				</g>
			</g>
		</g>
	</g>
</g>
</svg>
