<?xml version="1.0" encoding="utf-8"?>
<!-- Generator: Adobe Illustrator 26.0.3, SVG Export Plug-In . SVG Version: 6.00 Build 0)  -->
<svg version="1.1" id="door_x5F_base" x="0px"
	 y="0px" viewBox="0 0 595.28 841.89" style="enable-background:new 0 0 595.28 841.89;" xml:space="preserve">
<style type="text/css">
	.door_base_0{fill:#74A06A;}
</style>
<path class="door_base_0" d="M256.43,382.63l-3.52-0.63l-0.04-27.71l3.47,0.7v-10.94l-3.49-0.88l-0.02-14.66l-22.39-4.5l-5.13,7.21
	l0.05,6.46L40.48,296.7l-0.04-10.16l-24.8-5.48v17.43v13.99v260.42v4.14v43.19v9.93v9.19v1.49v5.46v117.1l26.76-2.15l-0.23-56.77
	l-0.24-59.16l0.48-0.02v-5.46l-0.5,0.02l-0.01-1.51l0,0v-8.19h-0.04l0-0.94l1.79-0.06v-8.93h-1.82l-0.18-43.19h0.76v-4.14h-0.78
	l-0.62-151.47l0.57,0.06v5.33l2.33,0.23l0.98,332.71l52.56,17.26l9.32-3l-2.03-341.05l32.45,3.16l3.04,308.23l5.96,2.98l82.43-8.27
	l4.19,2.81l20.62-2.24l-0.15-109.52l1.27-0.05v-4.64l-1.27,0.05l0-0.64l1.33-0.05v-7.93l1.52-0.05v-7.76h-2.87l-0.05-37.77
	l1.08-0.02l-0.17-3.45l-0.91-0.02l-0.25-177.9l3.51,0.5V382.63z M52.49,458.85c4.07-16.02,8.6-25.06,13.1-29.68l19.5,1.9
	c3.67,3.86,5.98,8.17,5.98,8.17V599.9H54.1L52.49,458.85z M56.03,626.02h14.15v12.54h-8.36l-0.64,30.78h-5.14V626.02z M70.35,736.59
	l-14.22-3.31l0.32-45.02h5.96l-0.32,34.76l8.26,1.66V736.59z M78.53,707.7l-8.36-1.94v-58.07h8.36V707.7z M78.53,625.69h12.54v47.59
	h-4.19l0.01-35.04l-8.36-0.32V625.69z M92.2,741.89l-12.9-2.98v-12.25l8.93,1.66l0.01-37.44h3.97L92.2,741.89z M186.88,632.78v-9.97
	h23.62v36.97h-9.48l-0.32-27.33L186.88,632.78z M191.7,641.29v48.55l-19.29,1.54v-50.09H191.7z M151.43,599.9V475.24
	c0,0,3.8-23.63,28.54-23.63c22.33,0,28.6,23.39,28.6,23.39l1.93,124.9H151.43z M154.8,622.81h21.47v9.32l-11.15,0.33l-0.36,30.86
	h-9.97V622.81z M179.43,717.22l-23.66,1.58v-39.48h9.26v28.3l14.39,0.01V717.22z M212.19,715.57l-20.83,1.24v-10.43l11.4-0.24
	l-0.25-29.54h9.68V715.57z M220.32,416.88l-115.78-15.11l-0.05-7.97l-7.74-1l-12.76,6.29l-34.15-4.46l-0.33-53.99l170.81,32.74
	V416.88z M225.37,444.73l0.79,0.08l0.62,83.11L225.37,444.73z"/>
</svg>
