<?xml version="1.0" encoding="utf-8"?>
<!-- Generator: Adobe Illustrator 26.0.3, SVG Export Plug-In . SVG Version: 6.00 Build 0)  -->
<svg version="1.1" id="mirrortable_x5F_mirrors_copy"
	 xmlns="http://www.w3.org/2000/svg" xmlns:xlink="http://www.w3.org/1999/xlink" x="0px" y="0px" viewBox="0 0 595.28 841.89"
	 style="enable-background:new 0 0 595.28 841.89;" xml:space="preserve">
<style type="text/css">
	.mirrortable_mirror_0{fill:#BE765E;}
	.mirrortable_mirror_1{fill:none;}
	.mirrortable_mirror_2{fill:#E5F3ED;}
</style>
<g>
	<path class="mirrortable_mirror_1" d="M302.92,676.68l23.17,5.46v3.81c0,0-2.98,6.95,0,9.6v4.97c0,0-2.81,8.11,3.14,9.43l3.31,49.16l-29.48-16.22
		L302.92,676.68z"/>
</g>
<g>
	<path class="mirrortable_mirror_1" d="M388.49,783.77v-39.56c0,0-5.28-10.53-3.64-19.37c0,0-6.46-3.14-3.81-8.11c0,0-11.09-4.3,1.82-17.21
		l0.34-11.91c0,0-29.97,0.65-36.43-4.15v2.48c0,0,7.61,5.96,0,12.74v8.77l-0.83,3.31l-2.3,52.13L388.49,783.77z"/>
</g>
<rect id="XMLID_00000149378062724856665130000017182440522648553615_" x="301.83" y="668.62" class="mirrortable_mirror_2" width="120.64" height="117.48"/>
<polygon id="XMLID_00000178899002952963814310000002271697988159497388_" class="mirrortable_mirror_2" points="436.16,630.99 325.92,634.51 
	326.75,343.33 428.3,262.85 "/>
</svg>
