<?xml version="1.0" encoding="utf-8"?>
<!-- Generator: Adobe Illustrator 26.0.3, SVG Export Plug-In . SVG Version: 6.00 Build 0)  -->
<svg version="1.1" id="mirrortable_x5F_base" xmlns="http://www.w3.org/2000/svg" xmlns:xlink="http://www.w3.org/1999/xlink"
	 x="0px" y="0px" viewBox="0 0 595.28 841.89" style="enable-background:new 0 0 595.28 841.89;" xml:space="preserve">
<style type="text/css">
	.mirrortable_base_0{fill:#BE765E;}
	.mirrortable_base_1{fill:none;}
</style>
<g>
	<g>
		<path class="mirrortable_base_0" d="M466.98,628.75h-18.95l1.32-90.04h0.83l3-2.32h2.15l0.17-11.09l-1.99-2.65l0.71-210.62
			c0,0,11.77-17.38-0.9-18.37c0,0,3.97-47.17-30.54-44.94l-8.44-2.23v-5.46l-6.21-2.73l-7.45,5.96v-5.96l2.15-1.49v-1.99l3.48-3.14
			l-11.92-2.65l-14.57,14.07c0,0-9.1-6.79-16.88-4.3c-7.78,2.48-10.1,21.52-10.1,21.52s-5.96,7.78-8.28,15.23l-10.59,10.59
			l0.17,2.15l2.97,0.03l0.51,1.79c0,0,2.65,0.66,4.14,1.16l0.5,12.58l-5.96-0.33l-4.3,4.14l1.16,1.49l-1.32,6.12
			c0,0-4.3,3.31-1.66,8.44c0,0-13.41,13.74-14.07,38.57l-0.46,14.32l-5.83,10.92c0,0-0.74,7.2,3.1,5.71l0.37,9.19l1.37,0.37
			l3.35,116.32l-1.99,4.72l0.25,7.2l2.98,2.73l-0.99,56.61c0,0-1.74,18.37-5.71,20.86l-0.25,10.92l-3.23,0.99l-0.25,4.72h-29.3
			l-4.97,1.49c0,0-0.99,3.72,1.49,4.22l4.22,3.6l-0.12,10.68c0,0-19.37-0.25-18.25,5.09l-3.97,2.11v0.99l2.11,0.5l-0.25,12.41
			l1.37,1.12l-2.23,1.99v2.36l1.12,1.49c0,0-0.12,6.83,2.23,7.94l0.62,7.7l0.99,1.61l1.86,52.14l-1.99,1.61l-0.12,2.61l-2.73,0.62
			l-0.12,4.34c0,0-1.86,1.12-0.5,2.61l-2.98,0.12v4.34l0.87,0.62l-0.25,17.75l7.82,5.71l11.79-5.21l-0.12-4.72l2.11,1.37
			l33.43,20.23h152.28v-4.09l-1.99-0.99l3.72-1.49V628.75z M279.53,697.92c0.5,2.66,1.82,2.66,1.82,2.66v37.9l-3.68,3.81v3.31
			l-1.43,0.79l-1.68-1.61l2.73-56.73c0,0,4.84,6.83,4.97,9.06C282.27,697.11,279.04,695.26,279.53,697.92z M302.64,743.37
			l-0.15-66.21l23.17,5.46v3.81c0,0-2.98,6.95,0,9.6V701c0,0-2.81,8.11,3.14,9.43l3.31,49.16L302.64,743.37z M388.06,784.25
			l-44.84-20.86l2.3-52.13l0.83-3.31v-8.77c7.61-6.79,0-12.74,0-12.74v-2.48c6.46,4.8,36.43,4.15,36.43,4.15L382.43,700
			c-12.91,12.91-1.82,17.21-1.82,17.21c-2.65,4.97,3.81,8.11,3.81,8.11c-1.64,8.83,3.64,19.37,3.64,19.37V784.25z M427.06,618.91
			l-97.16-2.15l0.66-259.2c0,0-1.99-14.9,11.75-20.86l65.38-51.81h3.97l10.26-8.77c0,0,3.81-0.33,4.47,2.98
			c0.66,3.31,0,19.37,0,19.37s-11.26,7.78-0.66,16.55l-1.66,12.41c0,0,1.85,1.72,4.13,1.73c0.27,0,0.55-0.02,0.83-0.07l1.66,194.32
			l-4.14,2.98l0.83,2.65h0.99v6.79l-1.82,1.82l0.66,1.16h2.81l1.32,53.46c0,0,3.48,11.59-4.63,22.18L427.06,618.91z"/>
	</g>
</g>
<g>
	<path class="mirrortable_base_1" d="M302.92,676.68l23.17,5.46v3.81c0,0-2.98,6.95,0,9.6v4.97c0,0-2.81,8.11,3.14,9.43l3.31,49.16l-29.48-16.22
		L302.92,676.68z"/>
</g>
<g>
	<path class="mirrortable_base_1" d="M388.49,783.77v-39.56c0,0-5.28-10.53-3.64-19.37c0,0-6.46-3.14-3.81-8.11c0,0-11.09-4.3,1.82-17.21
		l0.34-11.91c0,0-29.97,0.65-36.43-4.15v2.48c0,0,7.61,5.96,0,12.74v8.77l-0.83,3.31l-2.3,52.13L388.49,783.77z"/>
</g>
</svg>
